<?xml version="1.0" encoding="utf-8" standalone="no"?>
<!DOCTYPE svg PUBLIC "-//W3C//DTD SVG 1.1//EN"
  "http://www.w3.org/Graphics/SVG/1.1/DTD/svg11.dtd">
<svg xmlns:xlink="http://www.w3.org/1999/xlink" width="460.8pt" height="345.6pt" viewBox="0 0 460.8 345.6" xmlns="http://www.w3.org/2000/svg" version="1.1">
 <metadata>
  <rdf:RDF xmlns:dc="http://purl.org/dc/elements/1.1/" xmlns:cc="http://creativecommons.org/ns#" xmlns:rdf="http://www.w3.org/1999/02/22-rdf-syntax-ns#">
   <cc:Work>
    <dc:type rdf:resource="http://purl.org/dc/dcmitype/StillImage"/>
    <dc:date>2024-10-02T02:24:36.414557</dc:date>
    <dc:format>image/svg+xml</dc:format>
    <dc:creator>
     <cc:Agent>
      <dc:title>Matplotlib v3.7.2, https://matplotlib.org/</dc:title>
     </cc:Agent>
    </dc:creator>
   </cc:Work>
  </rdf:RDF>
 </metadata>
 <defs>
  <style type="text/css">*{stroke-linejoin: round; stroke-linecap: butt}</style>
 </defs>
 <g id="figure_1">
  <g id="patch_1">
   <path d="M 0 345.6 
L 460.8 345.6 
L 460.8 0 
L 0 0 
z
" style="fill: #ffffff"/>
  </g>
  <g id="axes_1">
   <g id="patch_2">
    <path d="M 57.6 307.584 
L 414.72 307.584 
L 414.72 41.472 
L 57.6 41.472 
z
" style="fill: #ffffff"/>
   </g>
   <g id="PolyCollection_1">
    <defs>
     <path id="mf43bd3ad17" d="M 73.832727 -38.016 
L 73.832727 -38.016 
L 78.491326 -38.016 
L 78.491326 -38.016 
L 87.8696 -38.016 
L 87.8696 -38.016 
L 90.00287 -38.016 
L 90.00287 -38.016 
L 112.426428 -38.016 
L 112.426428 -38.016 
L 135.468892 -38.016 
L 135.468892 -38.016 
L 180.509419 -38.016 
L 180.509419 -38.016 
L 203.16225 -38.016 
L 203.16225 -38.016 
L 212.270985 -38.016 
L 212.270985 -38.016 
L 245.875906 -38.016 
L 245.875906 -38.016 
L 256.442538 -38.016 
L 256.442538 -38.016 
L 286.645437 -38.016 
L 286.645437 -38.016 
L 357.704352 -38.016 
L 357.704352 -38.016 
L 374.098591 -38.016 
L 374.098591 -38.016 
L 377.47503 -38.016 
L 377.47503 -38.016 
L 386.854693 -38.016 
L 386.854693 -38.016 
L 386.959129 -38.016 
L 386.959129 -38.016 
L 398.487273 -38.016 
L 398.487273 -38.016 
L 398.487273 -38.016 
L 386.959129 -38.016 
L 386.959129 -38.016 
L 386.854693 -38.016 
L 386.854693 -38.016 
L 377.47503 -38.016 
L 377.47503 -38.016 
L 374.098591 -38.016 
L 374.098591 -38.016 
L 357.704352 -38.016 
L 357.704352 -38.016 
L 286.645437 -38.016 
L 286.645437 -38.016 
L 256.442538 -38.016 
L 256.442538 -38.016 
L 245.875906 -38.016 
L 245.875906 -38.016 
L 212.270985 -40.223922 
L 212.270985 -40.223922 
L 203.16225 -42.134392 
L 203.16225 -42.134392 
L 180.509419 -49.430145 
L 180.509419 -49.430145 
L 135.468892 -55.975877 
L 135.468892 -55.975877 
L 112.426428 -54.088947 
L 112.426428 -54.088947 
L 90.00287 -55.875852 
L 90.00287 -55.875852 
L 87.8696 -55.91967 
L 87.8696 -55.91967 
L 78.491326 -51.746485 
L 78.491326 -51.746485 
L 73.832727 -38.016 
z
" style="stroke: #000000"/>
    </defs>
    <g clip-path="url(#pfdeedf2f0d)">
     <use xlink:href="#mf43bd3ad17" x="0" y="345.6" style="fill: #f77189; stroke: #000000"/>
    </g>
   </g>
   <g id="PolyCollection_2">
    <defs>
     <path id="mb52ce2a825" d="M 73.832727 -38.016 
L 73.832727 -38.016 
L 78.491326 -51.746485 
L 78.491326 -51.746485 
L 87.8696 -55.91967 
L 87.8696 -55.91967 
L 90.00287 -55.875852 
L 90.00287 -55.875852 
L 112.426428 -54.088947 
L 112.426428 -54.088947 
L 135.468892 -55.975877 
L 135.468892 -55.975877 
L 180.509419 -49.430145 
L 180.509419 -49.430145 
L 203.16225 -42.134392 
L 203.16225 -42.134392 
L 212.270985 -40.223922 
L 212.270985 -40.223922 
L 245.875906 -38.016 
L 245.875906 -38.016 
L 256.442538 -38.016 
L 256.442538 -38.016 
L 286.645437 -38.016 
L 286.645437 -38.016 
L 357.704352 -38.016 
L 357.704352 -38.016 
L 374.098591 -38.016 
L 374.098591 -38.016 
L 377.47503 -38.016 
L 377.47503 -38.016 
L 386.854693 -38.016 
L 386.854693 -38.016 
L 386.959129 -38.016 
L 386.959129 -38.016 
L 398.487273 -38.016 
L 398.487273 -38.016 
L 398.487273 -38.016 
L 386.959129 -38.016 
L 386.959129 -38.016 
L 386.854693 -38.016 
L 386.854693 -38.016 
L 377.47503 -38.016 
L 377.47503 -38.016 
L 374.098591 -38.016 
L 374.098591 -38.016 
L 357.704352 -38.016 
L 357.704352 -38.016 
L 286.645437 -114.036675 
L 286.645437 -114.036675 
L 256.442538 -60.977279 
L 256.442538 -60.977279 
L 245.875906 -68.017559 
L 245.875906 -68.017559 
L 212.270985 -91.147846 
L 212.270985 -91.147846 
L 203.16225 -90.158261 
L 203.16225 -90.158261 
L 180.509419 -89.649967 
L 180.509419 -89.649967 
L 135.468892 -88.147288 
L 135.468892 -88.147288 
L 112.426428 -77.026199 
L 112.426428 -77.026199 
L 90.00287 -58.337319 
L 90.00287 -58.337319 
L 87.8696 -55.91967 
L 87.8696 -55.91967 
L 78.491326 -51.746485 
L 78.491326 -51.746485 
L 73.832727 -38.016 
z
" style="stroke: #000000"/>
    </defs>
    <g clip-path="url(#pfdeedf2f0d)">
     <use xlink:href="#mb52ce2a825" x="0" y="345.6" style="fill: #dc8932; stroke: #000000"/>
    </g>
   </g>
   <g id="PolyCollection_3">
    <defs>
     <path id="me8449b1bbb" d="M 73.832727 -291.456 
L 73.832727 -38.016 
L 78.491326 -51.746485 
L 78.491326 -51.746485 
L 87.8696 -55.91967 
L 87.8696 -55.91967 
L 90.00287 -58.337319 
L 90.00287 -58.337319 
L 112.426428 -77.026199 
L 112.426428 -77.026199 
L 135.468892 -88.147288 
L 135.468892 -88.147288 
L 180.509419 -89.649967 
L 180.509419 -89.649967 
L 203.16225 -90.158261 
L 203.16225 -90.158261 
L 212.270985 -91.147846 
L 212.270985 -91.147846 
L 245.875906 -68.017559 
L 245.875906 -68.017559 
L 256.442538 -60.977279 
L 256.442538 -60.977279 
L 286.645437 -114.036675 
L 286.645437 -114.036675 
L 357.704352 -38.016 
L 357.704352 -38.016 
L 374.098591 -38.016 
L 374.098591 -38.016 
L 377.47503 -38.016 
L 377.47503 -38.016 
L 386.854693 -38.016 
L 386.854693 -38.016 
L 386.959129 -38.016 
L 386.959129 -38.016 
L 398.487273 -38.016 
L 398.487273 -38.016 
L 398.487273 -38.016 
L 386.959129 -38.016 
L 386.959129 -38.016 
L 386.854693 -38.016 
L 386.854693 -38.016 
L 377.47503 -38.016 
L 377.47503 -38.016 
L 374.098591 -38.016 
L 374.098591 -38.016 
L 357.704352 -38.016 
L 357.704352 -38.016 
L 286.645437 -114.036675 
L 286.645437 -114.036675 
L 256.442538 -112.348975 
L 256.442538 -112.348975 
L 245.875906 -123.177396 
L 245.875906 -123.177396 
L 212.270985 -157.906437 
L 212.270985 -157.906437 
L 203.16225 -165.835088 
L 203.16225 -165.835088 
L 180.509419 -180.593604 
L 180.509419 -180.593604 
L 135.468892 -227.422292 
L 135.468892 -227.422292 
L 112.426428 -250.107426 
L 112.426428 -250.107426 
L 90.00287 -272.158761 
L 90.00287 -272.158761 
L 87.8696 -273.563263 
L 87.8696 -273.563263 
L 78.491326 -291.456 
L 78.491326 -291.456 
L 73.832727 -291.456 
z
" style="stroke: #000000"/>
    </defs>
    <g clip-path="url(#pfdeedf2f0d)">
     <use xlink:href="#me8449b1bbb" x="0" y="345.6" style="fill: #ae9d31; stroke: #000000"/>
    </g>
   </g>
   <g id="PolyCollection_4">
    <defs>
     <path id="mcc5506ea72" d="M 73.832727 -291.456 
L 73.832727 -291.456 
L 78.491326 -291.456 
L 78.491326 -291.456 
L 87.8696 -273.563263 
L 87.8696 -273.563263 
L 90.00287 -272.158761 
L 90.00287 -272.158761 
L 112.426428 -250.107426 
L 112.426428 -250.107426 
L 135.468892 -227.422292 
L 135.468892 -227.422292 
L 180.509419 -180.593604 
L 180.509419 -180.593604 
L 203.16225 -165.835088 
L 203.16225 -165.835088 
L 212.270985 -157.906437 
L 212.270985 -157.906437 
L 245.875906 -123.177396 
L 245.875906 -123.177396 
L 256.442538 -112.348975 
L 256.442538 -112.348975 
L 286.645437 -114.036675 
L 286.645437 -114.036675 
L 357.704352 -38.016 
L 357.704352 -38.016 
L 374.098591 -38.016 
L 374.098591 -38.016 
L 377.47503 -38.016 
L 377.47503 -38.016 
L 386.854693 -38.016 
L 386.854693 -38.016 
L 386.959129 -38.016 
L 386.959129 -38.016 
L 398.487273 -38.016 
L 398.487273 -38.016 
L 398.487273 -38.016 
L 386.959129 -38.016 
L 386.959129 -38.016 
L 386.854693 -38.575509 
L 386.854693 -38.575509 
L 377.47503 -51.239135 
L 377.47503 -51.239135 
L 374.098591 -52.172724 
L 374.098591 -52.172724 
L 357.704352 -57.264012 
L 357.704352 -57.264012 
L 286.645437 -123.538808 
L 286.645437 -123.538808 
L 256.442538 -145.289919 
L 256.442538 -145.289919 
L 245.875906 -155.09901 
L 245.875906 -155.09901 
L 212.270985 -186.131803 
L 212.270985 -186.131803 
L 203.16225 -192.872681 
L 203.16225 -192.872681 
L 180.509419 -201.418165 
L 180.509419 -201.418165 
L 135.468892 -227.422292 
L 135.468892 -227.422292 
L 112.426428 -250.107426 
L 112.426428 -250.107426 
L 90.00287 -272.158761 
L 90.00287 -272.158761 
L 87.8696 -273.563263 
L 87.8696 -273.563263 
L 78.491326 -291.456 
L 78.491326 -291.456 
L 73.832727 -291.456 
z
" style="stroke: #000000"/>
    </defs>
    <g clip-path="url(#pfdeedf2f0d)">
     <use xlink:href="#mcc5506ea72" x="0" y="345.6" style="fill: #77ab31; stroke: #000000"/>
    </g>
   </g>
   <g id="PolyCollection_5">
    <defs>
     <path id="mb67e201f3c" d="M 73.832727 -291.456 
L 73.832727 -291.456 
L 78.491326 -291.456 
L 78.491326 -291.456 
L 87.8696 -273.563263 
L 87.8696 -273.563263 
L 90.00287 -272.158761 
L 90.00287 -272.158761 
L 112.426428 -250.107426 
L 112.426428 -250.107426 
L 135.468892 -227.422292 
L 135.468892 -227.422292 
L 180.509419 -201.418165 
L 180.509419 -201.418165 
L 203.16225 -192.872681 
L 203.16225 -192.872681 
L 212.270985 -186.131803 
L 212.270985 -186.131803 
L 245.875906 -155.09901 
L 245.875906 -155.09901 
L 256.442538 -145.289919 
L 256.442538 -145.289919 
L 286.645437 -123.538808 
L 286.645437 -123.538808 
L 357.704352 -57.264012 
L 357.704352 -57.264012 
L 374.098591 -52.172724 
L 374.098591 -52.172724 
L 377.47503 -51.239135 
L 377.47503 -51.239135 
L 386.854693 -38.575509 
L 386.854693 -38.575509 
L 386.959129 -38.016 
L 386.959129 -38.016 
L 398.487273 -38.016 
L 398.487273 -38.016 
L 398.487273 -38.016 
L 386.959129 -38.016 
L 386.959129 -38.016 
L 386.854693 -38.575509 
L 386.854693 -38.575509 
L 377.47503 -51.239135 
L 377.47503 -51.239135 
L 374.098591 -59.858592 
L 374.098591 -59.858592 
L 357.704352 -70.97642 
L 357.704352 -70.97642 
L 286.645437 -177.741533 
L 286.645437 -177.741533 
L 256.442538 -164.720574 
L 256.442538 -164.720574 
L 245.875906 -178.098803 
L 245.875906 -178.098803 
L 212.270985 -221.346206 
L 212.270985 -221.346206 
L 203.16225 -227.611627 
L 203.16225 -227.611627 
L 180.509419 -239.315114 
L 180.509419 -239.315114 
L 135.468892 -245.90648 
L 135.468892 -245.90648 
L 112.426428 -250.107426 
L 112.426428 -250.107426 
L 90.00287 -272.158761 
L 90.00287 -272.158761 
L 87.8696 -273.563263 
L 87.8696 -273.563263 
L 78.491326 -291.456 
L 78.491326 -291.456 
L 73.832727 -291.456 
z
" style="stroke: #000000"/>
    </defs>
    <g clip-path="url(#pfdeedf2f0d)">
     <use xlink:href="#mb67e201f3c" x="0" y="345.6" style="fill: #33b07a; stroke: #000000"/>
    </g>
   </g>
   <g id="PolyCollection_6">
    <defs>
     <path id="m4042b01928" d="M 73.832727 -291.456 
L 73.832727 -291.456 
L 78.491326 -291.456 
L 78.491326 -291.456 
L 87.8696 -273.563263 
L 87.8696 -273.563263 
L 90.00287 -272.158761 
L 90.00287 -272.158761 
L 112.426428 -250.107426 
L 112.426428 -250.107426 
L 135.468892 -245.90648 
L 135.468892 -245.90648 
L 180.509419 -239.315114 
L 180.509419 -239.315114 
L 203.16225 -227.611627 
L 203.16225 -227.611627 
L 212.270985 -221.346206 
L 212.270985 -221.346206 
L 245.875906 -178.098803 
L 245.875906 -178.098803 
L 256.442538 -164.720574 
L 256.442538 -164.720574 
L 286.645437 -177.741533 
L 286.645437 -177.741533 
L 357.704352 -70.97642 
L 357.704352 -70.97642 
L 374.098591 -59.858592 
L 374.098591 -59.858592 
L 377.47503 -51.239135 
L 377.47503 -51.239135 
L 386.854693 -38.575509 
L 386.854693 -38.575509 
L 386.959129 -38.016 
L 386.959129 -38.016 
L 398.487273 -38.016 
L 398.487273 -38.016 
L 398.487273 -38.016 
L 386.959129 -38.016 
L 386.959129 -38.016 
L 386.854693 -38.575509 
L 386.854693 -38.575509 
L 377.47503 -51.239135 
L 377.47503 -51.239135 
L 374.098591 -59.858592 
L 374.098591 -59.858592 
L 357.704352 -70.97642 
L 357.704352 -70.97642 
L 286.645437 -177.741533 
L 286.645437 -177.741533 
L 256.442538 -164.720574 
L 256.442538 -164.720574 
L 245.875906 -178.098803 
L 245.875906 -178.098803 
L 212.270985 -221.346206 
L 212.270985 -221.346206 
L 203.16225 -227.611627 
L 203.16225 -227.611627 
L 180.509419 -253.704706 
L 180.509419 -253.704706 
L 135.468892 -275.525612 
L 135.468892 -275.525612 
L 112.426428 -277.079601 
L 112.426428 -277.079601 
L 90.00287 -291.456 
L 90.00287 -291.456 
L 87.8696 -291.456 
L 87.8696 -291.456 
L 78.491326 -291.456 
L 78.491326 -291.456 
L 73.832727 -291.456 
z
" style="stroke: #000000"/>
    </defs>
    <g clip-path="url(#pfdeedf2f0d)">
     <use xlink:href="#m4042b01928" x="0" y="345.6" style="fill: #36ada4; stroke: #000000"/>
    </g>
   </g>
   <g id="PolyCollection_7">
    <defs>
     <path id="m35838020c5" d="M 73.832727 -291.456 
L 73.832727 -291.456 
L 78.491326 -291.456 
L 78.491326 -291.456 
L 87.8696 -291.456 
L 87.8696 -291.456 
L 90.00287 -291.456 
L 90.00287 -291.456 
L 112.426428 -277.079601 
L 112.426428 -277.079601 
L 135.468892 -275.525612 
L 135.468892 -275.525612 
L 180.509419 -253.704706 
L 180.509419 -253.704706 
L 203.16225 -227.611627 
L 203.16225 -227.611627 
L 212.270985 -221.346206 
L 212.270985 -221.346206 
L 245.875906 -178.098803 
L 245.875906 -178.098803 
L 256.442538 -164.720574 
L 256.442538 -164.720574 
L 286.645437 -177.741533 
L 286.645437 -177.741533 
L 357.704352 -70.97642 
L 357.704352 -70.97642 
L 374.098591 -59.858592 
L 374.098591 -59.858592 
L 377.47503 -51.239135 
L 377.47503 -51.239135 
L 386.854693 -38.575509 
L 386.854693 -38.575509 
L 386.959129 -38.016 
L 386.959129 -38.016 
L 398.487273 -38.016 
L 398.487273 -38.016 
L 398.487273 -38.016 
L 386.959129 -208.021697 
L 386.959129 -208.021697 
L 386.854693 -208.671509 
L 386.854693 -208.671509 
L 377.47503 -204.993525 
L 377.47503 -204.993525 
L 374.098591 -206.549105 
L 374.098591 -206.549105 
L 357.704352 -199.09554 
L 357.704352 -199.09554 
L 286.645437 -178.208542 
L 286.645437 -178.208542 
L 256.442538 -219.872252 
L 256.442538 -219.872252 
L 245.875906 -219.750513 
L 245.875906 -219.750513 
L 212.270985 -221.346206 
L 212.270985 -221.346206 
L 203.16225 -227.611627 
L 203.16225 -227.611627 
L 180.509419 -253.704706 
L 180.509419 -253.704706 
L 135.468892 -275.525612 
L 135.468892 -275.525612 
L 112.426428 -277.079601 
L 112.426428 -277.079601 
L 90.00287 -291.456 
L 90.00287 -291.456 
L 87.8696 -291.456 
L 87.8696 -291.456 
L 78.491326 -291.456 
L 78.491326 -291.456 
L 73.832727 -291.456 
z
" style="stroke: #000000"/>
    </defs>
    <g clip-path="url(#pfdeedf2f0d)">
     <use xlink:href="#m35838020c5" x="0" y="345.6" style="fill: #38a9c5; stroke: #000000"/>
    </g>
   </g>
   <g id="PolyCollection_8">
    <defs>
     <path id="mcc8222654c" d="M 73.832727 -291.456 
L 73.832727 -291.456 
L 78.491326 -291.456 
L 78.491326 -291.456 
L 87.8696 -291.456 
L 87.8696 -291.456 
L 90.00287 -291.456 
L 90.00287 -291.456 
L 112.426428 -277.079601 
L 112.426428 -277.079601 
L 135.468892 -275.525612 
L 135.468892 -275.525612 
L 180.509419 -253.704706 
L 180.509419 -253.704706 
L 203.16225 -227.611627 
L 203.16225 -227.611627 
L 212.270985 -221.346206 
L 212.270985 -221.346206 
L 245.875906 -219.750513 
L 245.875906 -219.750513 
L 256.442538 -219.872252 
L 256.442538 -219.872252 
L 286.645437 -178.208542 
L 286.645437 -178.208542 
L 357.704352 -199.09554 
L 357.704352 -199.09554 
L 374.098591 -206.549105 
L 374.098591 -206.549105 
L 377.47503 -204.993525 
L 377.47503 -204.993525 
L 386.854693 -208.671509 
L 386.854693 -208.671509 
L 386.959129 -208.021697 
L 386.959129 -208.021697 
L 398.487273 -38.016 
L 398.487273 -38.016 
L 398.487273 -38.016 
L 386.959129 -208.021697 
L 386.959129 -208.021697 
L 386.854693 -208.671509 
L 386.854693 -208.671509 
L 377.47503 -204.993525 
L 377.47503 -204.993525 
L 374.098591 -206.549105 
L 374.098591 -206.549105 
L 357.704352 -217.365874 
L 357.704352 -217.365874 
L 286.645437 -209.49399 
L 286.645437 -209.49399 
L 256.442538 -264.396272 
L 256.442538 -264.396272 
L 245.875906 -264.987069 
L 245.875906 -264.987069 
L 212.270985 -267.995672 
L 212.270985 -267.995672 
L 203.16225 -273.850506 
L 203.16225 -273.850506 
L 180.509419 -291.456 
L 180.509419 -291.456 
L 135.468892 -291.456 
L 135.468892 -291.456 
L 112.426428 -291.456 
L 112.426428 -291.456 
L 90.00287 -291.456 
L 90.00287 -291.456 
L 87.8696 -291.456 
L 87.8696 -291.456 
L 78.491326 -291.456 
L 78.491326 -291.456 
L 73.832727 -291.456 
z
" style="stroke: #000000"/>
    </defs>
    <g clip-path="url(#pfdeedf2f0d)">
     <use xlink:href="#mcc8222654c" x="0" y="345.6" style="fill: #6e9bf4; stroke: #000000"/>
    </g>
   </g>
   <g id="PolyCollection_9">
    <defs>
     <path id="mf485651245" d="M 73.832727 -291.456 
L 73.832727 -291.456 
L 78.491326 -291.456 
L 78.491326 -291.456 
L 87.8696 -291.456 
L 87.8696 -291.456 
L 90.00287 -291.456 
L 90.00287 -291.456 
L 112.426428 -291.456 
L 112.426428 -291.456 
L 135.468892 -291.456 
L 135.468892 -291.456 
L 180.509419 -291.456 
L 180.509419 -291.456 
L 203.16225 -273.850506 
L 203.16225 -273.850506 
L 212.270985 -267.995672 
L 212.270985 -267.995672 
L 245.875906 -264.987069 
L 245.875906 -264.987069 
L 256.442538 -264.396272 
L 256.442538 -264.396272 
L 286.645437 -209.49399 
L 286.645437 -209.49399 
L 357.704352 -217.365874 
L 357.704352 -217.365874 
L 374.098591 -206.549105 
L 374.098591 -206.549105 
L 377.47503 -204.993525 
L 377.47503 -204.993525 
L 386.854693 -208.671509 
L 386.854693 -208.671509 
L 386.959129 -208.021697 
L 386.959129 -208.021697 
L 398.487273 -38.016 
L 398.487273 -291.456 
L 398.487273 -291.456 
L 386.959129 -291.456 
L 386.959129 -291.456 
L 386.854693 -291.456 
L 386.854693 -291.456 
L 377.47503 -257.588019 
L 377.47503 -257.588019 
L 374.098591 -257.657398 
L 374.098591 -257.657398 
L 357.704352 -260.640249 
L 357.704352 -260.640249 
L 286.645437 -255.865846 
L 286.645437 -255.865846 
L 256.442538 -264.396272 
L 256.442538 -264.396272 
L 245.875906 -264.987069 
L 245.875906 -264.987069 
L 212.270985 -267.995672 
L 212.270985 -267.995672 
L 203.16225 -273.850506 
L 203.16225 -273.850506 
L 180.509419 -291.456 
L 180.509419 -291.456 
L 135.468892 -291.456 
L 135.468892 -291.456 
L 112.426428 -291.456 
L 112.426428 -291.456 
L 90.00287 -291.456 
L 90.00287 -291.456 
L 87.8696 -291.456 
L 87.8696 -291.456 
L 78.491326 -291.456 
L 78.491326 -291.456 
L 73.832727 -291.456 
z
" style="stroke: #000000"/>
    </defs>
    <g clip-path="url(#pfdeedf2f0d)">
     <use xlink:href="#mf485651245" x="0" y="345.6" style="fill: #cc7af4; stroke: #000000"/>
    </g>
   </g>
   <g id="PolyCollection_10">
    <defs>
     <path id="m663f0dc526" d="M 73.832727 -291.456 
L 73.832727 -291.456 
L 78.491326 -291.456 
L 78.491326 -291.456 
L 87.8696 -291.456 
L 87.8696 -291.456 
L 90.00287 -291.456 
L 90.00287 -291.456 
L 112.426428 -291.456 
L 112.426428 -291.456 
L 135.468892 -291.456 
L 135.468892 -291.456 
L 180.509419 -291.456 
L 180.509419 -291.456 
L 203.16225 -273.850506 
L 203.16225 -273.850506 
L 212.270985 -267.995672 
L 212.270985 -267.995672 
L 245.875906 -264.987069 
L 245.875906 -264.987069 
L 256.442538 -264.396272 
L 256.442538 -264.396272 
L 286.645437 -255.865846 
L 286.645437 -255.865846 
L 357.704352 -260.640249 
L 357.704352 -260.640249 
L 374.098591 -257.657398 
L 374.098591 -257.657398 
L 377.47503 -257.588019 
L 377.47503 -257.588019 
L 386.854693 -291.456 
L 386.854693 -291.456 
L 386.959129 -291.456 
L 386.959129 -291.456 
L 398.487273 -291.456 
L 398.487273 -291.456 
L 398.487273 -291.456 
L 386.959129 -291.456 
L 386.959129 -291.456 
L 386.854693 -291.456 
L 386.854693 -291.456 
L 377.47503 -291.456 
L 377.47503 -291.456 
L 374.098591 -291.456 
L 374.098591 -291.456 
L 357.704352 -291.456 
L 357.704352 -291.456 
L 286.645437 -291.456 
L 286.645437 -291.456 
L 256.442538 -291.456 
L 256.442538 -291.456 
L 245.875906 -291.456 
L 245.875906 -291.456 
L 212.270985 -291.456 
L 212.270985 -291.456 
L 203.16225 -291.456 
L 203.16225 -291.456 
L 180.509419 -291.456 
L 180.509419 -291.456 
L 135.468892 -291.456 
L 135.468892 -291.456 
L 112.426428 -291.456 
L 112.426428 -291.456 
L 90.00287 -291.456 
L 90.00287 -291.456 
L 87.8696 -291.456 
L 87.8696 -291.456 
L 78.491326 -291.456 
L 78.491326 -291.456 
L 73.832727 -291.456 
z
" style="stroke: #000000"/>
    </defs>
    <g clip-path="url(#pfdeedf2f0d)">
     <use xlink:href="#m663f0dc526" x="0" y="345.6" style="fill: #f565cc; stroke: #000000"/>
    </g>
   </g>
   <g id="matplotlib.axis_1">
    <g id="xtick_1">
     <g id="line2d_1">
      <defs>
       <path id="mdb13c2a15a" d="M 0 0 
L 0 3.5 
" style="stroke: #000000; stroke-width: 0.8"/>
      </defs>
      <g>
       <use xlink:href="#mdb13c2a15a" x="58.893188" y="307.584" style="stroke: #000000; stroke-width: 0.8"/>
      </g>
     </g>
     <g id="text_1">
      <!-- 0.0 -->
      <g transform="translate(50.941625 322.182437) scale(0.1 -0.1)">
       <defs>
        <path id="DejaVuSans-30" d="M 2034 4250 
Q 1547 4250 1301 3770 
Q 1056 3291 1056 2328 
Q 1056 1369 1301 889 
Q 1547 409 2034 409 
Q 2525 409 2770 889 
Q 3016 1369 3016 2328 
Q 3016 3291 2770 3770 
Q 2525 4250 2034 4250 
z
M 2034 4750 
Q 2819 4750 3233 4129 
Q 3647 3509 3647 2328 
Q 3647 1150 3233 529 
Q 2819 -91 2034 -91 
Q 1250 -91 836 529 
Q 422 1150 422 2328 
Q 422 3509 836 4129 
Q 1250 4750 2034 4750 
z
" transform="scale(0.015625)"/>
        <path id="DejaVuSans-2e" d="M 684 794 
L 1344 794 
L 1344 0 
L 684 0 
L 684 794 
z
" transform="scale(0.015625)"/>
       </defs>
       <use xlink:href="#DejaVuSans-30"/>
       <use xlink:href="#DejaVuSans-2e" x="63.623047"/>
       <use xlink:href="#DejaVuSans-30" x="95.410156"/>
      </g>
     </g>
    </g>
    <g id="xtick_2">
     <g id="line2d_2">
      <g>
       <use xlink:href="#mdb13c2a15a" x="99.648519" y="307.584" style="stroke: #000000; stroke-width: 0.8"/>
      </g>
     </g>
     <g id="text_2">
      <!-- 0.1 -->
      <g transform="translate(91.696957 322.182437) scale(0.1 -0.1)">
       <defs>
        <path id="DejaVuSans-31" d="M 794 531 
L 1825 531 
L 1825 4091 
L 703 3866 
L 703 4441 
L 1819 4666 
L 2450 4666 
L 2450 531 
L 3481 531 
L 3481 0 
L 794 0 
L 794 531 
z
" transform="scale(0.015625)"/>
       </defs>
       <use xlink:href="#DejaVuSans-30"/>
       <use xlink:href="#DejaVuSans-2e" x="63.623047"/>
       <use xlink:href="#DejaVuSans-31" x="95.410156"/>
      </g>
     </g>
    </g>
    <g id="xtick_3">
     <g id="line2d_3">
      <g>
       <use xlink:href="#mdb13c2a15a" x="140.403851" y="307.584" style="stroke: #000000; stroke-width: 0.8"/>
      </g>
     </g>
     <g id="text_3">
      <!-- 0.2 -->
      <g transform="translate(132.452288 322.182437) scale(0.1 -0.1)">
       <defs>
        <path id="DejaVuSans-32" d="M 1228 531 
L 3431 531 
L 3431 0 
L 469 0 
L 469 531 
Q 828 903 1448 1529 
Q 2069 2156 2228 2338 
Q 2531 2678 2651 2914 
Q 2772 3150 2772 3378 
Q 2772 3750 2511 3984 
Q 2250 4219 1831 4219 
Q 1534 4219 1204 4116 
Q 875 4013 500 3803 
L 500 4441 
Q 881 4594 1212 4672 
Q 1544 4750 1819 4750 
Q 2544 4750 2975 4387 
Q 3406 4025 3406 3419 
Q 3406 3131 3298 2873 
Q 3191 2616 2906 2266 
Q 2828 2175 2409 1742 
Q 1991 1309 1228 531 
z
" transform="scale(0.015625)"/>
       </defs>
       <use xlink:href="#DejaVuSans-30"/>
       <use xlink:href="#DejaVuSans-2e" x="63.623047"/>
       <use xlink:href="#DejaVuSans-32" x="95.410156"/>
      </g>
     </g>
    </g>
    <g id="xtick_4">
     <g id="line2d_4">
      <g>
       <use xlink:href="#mdb13c2a15a" x="181.159182" y="307.584" style="stroke: #000000; stroke-width: 0.8"/>
      </g>
     </g>
     <g id="text_4">
      <!-- 0.3 -->
      <g transform="translate(173.20762 322.182437) scale(0.1 -0.1)">
       <defs>
        <path id="DejaVuSans-33" d="M 2597 2516 
Q 3050 2419 3304 2112 
Q 3559 1806 3559 1356 
Q 3559 666 3084 287 
Q 2609 -91 1734 -91 
Q 1441 -91 1130 -33 
Q 819 25 488 141 
L 488 750 
Q 750 597 1062 519 
Q 1375 441 1716 441 
Q 2309 441 2620 675 
Q 2931 909 2931 1356 
Q 2931 1769 2642 2001 
Q 2353 2234 1838 2234 
L 1294 2234 
L 1294 2753 
L 1863 2753 
Q 2328 2753 2575 2939 
Q 2822 3125 2822 3475 
Q 2822 3834 2567 4026 
Q 2313 4219 1838 4219 
Q 1578 4219 1281 4162 
Q 984 4106 628 3988 
L 628 4550 
Q 988 4650 1302 4700 
Q 1616 4750 1894 4750 
Q 2613 4750 3031 4423 
Q 3450 4097 3450 3541 
Q 3450 3153 3228 2886 
Q 3006 2619 2597 2516 
z
" transform="scale(0.015625)"/>
       </defs>
       <use xlink:href="#DejaVuSans-30"/>
       <use xlink:href="#DejaVuSans-2e" x="63.623047"/>
       <use xlink:href="#DejaVuSans-33" x="95.410156"/>
      </g>
     </g>
    </g>
    <g id="xtick_5">
     <g id="line2d_5">
      <g>
       <use xlink:href="#mdb13c2a15a" x="221.914513" y="307.584" style="stroke: #000000; stroke-width: 0.8"/>
      </g>
     </g>
     <g id="text_5">
      <!-- 0.4 -->
      <g transform="translate(213.962951 322.182437) scale(0.1 -0.1)">
       <defs>
        <path id="DejaVuSans-34" d="M 2419 4116 
L 825 1625 
L 2419 1625 
L 2419 4116 
z
M 2253 4666 
L 3047 4666 
L 3047 1625 
L 3713 1625 
L 3713 1100 
L 3047 1100 
L 3047 0 
L 2419 0 
L 2419 1100 
L 313 1100 
L 313 1709 
L 2253 4666 
z
" transform="scale(0.015625)"/>
       </defs>
       <use xlink:href="#DejaVuSans-30"/>
       <use xlink:href="#DejaVuSans-2e" x="63.623047"/>
       <use xlink:href="#DejaVuSans-34" x="95.410156"/>
      </g>
     </g>
    </g>
    <g id="xtick_6">
     <g id="line2d_6">
      <g>
       <use xlink:href="#mdb13c2a15a" x="262.669845" y="307.584" style="stroke: #000000; stroke-width: 0.8"/>
      </g>
     </g>
     <g id="text_6">
      <!-- 0.5 -->
      <g transform="translate(254.718282 322.182437) scale(0.1 -0.1)">
       <defs>
        <path id="DejaVuSans-35" d="M 691 4666 
L 3169 4666 
L 3169 4134 
L 1269 4134 
L 1269 2991 
Q 1406 3038 1543 3061 
Q 1681 3084 1819 3084 
Q 2600 3084 3056 2656 
Q 3513 2228 3513 1497 
Q 3513 744 3044 326 
Q 2575 -91 1722 -91 
Q 1428 -91 1123 -41 
Q 819 9 494 109 
L 494 744 
Q 775 591 1075 516 
Q 1375 441 1709 441 
Q 2250 441 2565 725 
Q 2881 1009 2881 1497 
Q 2881 1984 2565 2268 
Q 2250 2553 1709 2553 
Q 1456 2553 1204 2497 
Q 953 2441 691 2322 
L 691 4666 
z
" transform="scale(0.015625)"/>
       </defs>
       <use xlink:href="#DejaVuSans-30"/>
       <use xlink:href="#DejaVuSans-2e" x="63.623047"/>
       <use xlink:href="#DejaVuSans-35" x="95.410156"/>
      </g>
     </g>
    </g>
    <g id="xtick_7">
     <g id="line2d_7">
      <g>
       <use xlink:href="#mdb13c2a15a" x="303.425176" y="307.584" style="stroke: #000000; stroke-width: 0.8"/>
      </g>
     </g>
     <g id="text_7">
      <!-- 0.6 -->
      <g transform="translate(295.473614 322.182437) scale(0.1 -0.1)">
       <defs>
        <path id="DejaVuSans-36" d="M 2113 2584 
Q 1688 2584 1439 2293 
Q 1191 2003 1191 1497 
Q 1191 994 1439 701 
Q 1688 409 2113 409 
Q 2538 409 2786 701 
Q 3034 994 3034 1497 
Q 3034 2003 2786 2293 
Q 2538 2584 2113 2584 
z
M 3366 4563 
L 3366 3988 
Q 3128 4100 2886 4159 
Q 2644 4219 2406 4219 
Q 1781 4219 1451 3797 
Q 1122 3375 1075 2522 
Q 1259 2794 1537 2939 
Q 1816 3084 2150 3084 
Q 2853 3084 3261 2657 
Q 3669 2231 3669 1497 
Q 3669 778 3244 343 
Q 2819 -91 2113 -91 
Q 1303 -91 875 529 
Q 447 1150 447 2328 
Q 447 3434 972 4092 
Q 1497 4750 2381 4750 
Q 2619 4750 2861 4703 
Q 3103 4656 3366 4563 
z
" transform="scale(0.015625)"/>
       </defs>
       <use xlink:href="#DejaVuSans-30"/>
       <use xlink:href="#DejaVuSans-2e" x="63.623047"/>
       <use xlink:href="#DejaVuSans-36" x="95.410156"/>
      </g>
     </g>
    </g>
    <g id="xtick_8">
     <g id="line2d_8">
      <g>
       <use xlink:href="#mdb13c2a15a" x="344.180508" y="307.584" style="stroke: #000000; stroke-width: 0.8"/>
      </g>
     </g>
     <g id="text_8">
      <!-- 0.7 -->
      <g transform="translate(336.228945 322.182437) scale(0.1 -0.1)">
       <defs>
        <path id="DejaVuSans-37" d="M 525 4666 
L 3525 4666 
L 3525 4397 
L 1831 0 
L 1172 0 
L 2766 4134 
L 525 4134 
L 525 4666 
z
" transform="scale(0.015625)"/>
       </defs>
       <use xlink:href="#DejaVuSans-30"/>
       <use xlink:href="#DejaVuSans-2e" x="63.623047"/>
       <use xlink:href="#DejaVuSans-37" x="95.410156"/>
      </g>
     </g>
    </g>
    <g id="xtick_9">
     <g id="line2d_9">
      <g>
       <use xlink:href="#mdb13c2a15a" x="384.935839" y="307.584" style="stroke: #000000; stroke-width: 0.8"/>
      </g>
     </g>
     <g id="text_9">
      <!-- 0.8 -->
      <g transform="translate(376.984277 322.182437) scale(0.1 -0.1)">
       <defs>
        <path id="DejaVuSans-38" d="M 2034 2216 
Q 1584 2216 1326 1975 
Q 1069 1734 1069 1313 
Q 1069 891 1326 650 
Q 1584 409 2034 409 
Q 2484 409 2743 651 
Q 3003 894 3003 1313 
Q 3003 1734 2745 1975 
Q 2488 2216 2034 2216 
z
M 1403 2484 
Q 997 2584 770 2862 
Q 544 3141 544 3541 
Q 544 4100 942 4425 
Q 1341 4750 2034 4750 
Q 2731 4750 3128 4425 
Q 3525 4100 3525 3541 
Q 3525 3141 3298 2862 
Q 3072 2584 2669 2484 
Q 3125 2378 3379 2068 
Q 3634 1759 3634 1313 
Q 3634 634 3220 271 
Q 2806 -91 2034 -91 
Q 1263 -91 848 271 
Q 434 634 434 1313 
Q 434 1759 690 2068 
Q 947 2378 1403 2484 
z
M 1172 3481 
Q 1172 3119 1398 2916 
Q 1625 2713 2034 2713 
Q 2441 2713 2670 2916 
Q 2900 3119 2900 3481 
Q 2900 3844 2670 4047 
Q 2441 4250 2034 4250 
Q 1625 4250 1398 4047 
Q 1172 3844 1172 3481 
z
" transform="scale(0.015625)"/>
       </defs>
       <use xlink:href="#DejaVuSans-30"/>
       <use xlink:href="#DejaVuSans-2e" x="63.623047"/>
       <use xlink:href="#DejaVuSans-38" x="95.410156"/>
      </g>
     </g>
    </g>
    <g id="text_10">
     <!-- Expected Portfolio Return -->
     <g transform="translate(172.495156 335.860562) scale(0.1 -0.1)">
      <defs>
       <path id="DejaVuSans-45" d="M 628 4666 
L 3578 4666 
L 3578 4134 
L 1259 4134 
L 1259 2753 
L 3481 2753 
L 3481 2222 
L 1259 2222 
L 1259 531 
L 3634 531 
L 3634 0 
L 628 0 
L 628 4666 
z
" transform="scale(0.015625)"/>
       <path id="DejaVuSans-78" d="M 3513 3500 
L 2247 1797 
L 3578 0 
L 2900 0 
L 1881 1375 
L 863 0 
L 184 0 
L 1544 1831 
L 300 3500 
L 978 3500 
L 1906 2253 
L 2834 3500 
L 3513 3500 
z
" transform="scale(0.015625)"/>
       <path id="DejaVuSans-70" d="M 1159 525 
L 1159 -1331 
L 581 -1331 
L 581 3500 
L 1159 3500 
L 1159 2969 
Q 1341 3281 1617 3432 
Q 1894 3584 2278 3584 
Q 2916 3584 3314 3078 
Q 3713 2572 3713 1747 
Q 3713 922 3314 415 
Q 2916 -91 2278 -91 
Q 1894 -91 1617 61 
Q 1341 213 1159 525 
z
M 3116 1747 
Q 3116 2381 2855 2742 
Q 2594 3103 2138 3103 
Q 1681 3103 1420 2742 
Q 1159 2381 1159 1747 
Q 1159 1113 1420 752 
Q 1681 391 2138 391 
Q 2594 391 2855 752 
Q 3116 1113 3116 1747 
z
" transform="scale(0.015625)"/>
       <path id="DejaVuSans-65" d="M 3597 1894 
L 3597 1613 
L 953 1613 
Q 991 1019 1311 708 
Q 1631 397 2203 397 
Q 2534 397 2845 478 
Q 3156 559 3463 722 
L 3463 178 
Q 3153 47 2828 -22 
Q 2503 -91 2169 -91 
Q 1331 -91 842 396 
Q 353 884 353 1716 
Q 353 2575 817 3079 
Q 1281 3584 2069 3584 
Q 2775 3584 3186 3129 
Q 3597 2675 3597 1894 
z
M 3022 2063 
Q 3016 2534 2758 2815 
Q 2500 3097 2075 3097 
Q 1594 3097 1305 2825 
Q 1016 2553 972 2059 
L 3022 2063 
z
" transform="scale(0.015625)"/>
       <path id="DejaVuSans-63" d="M 3122 3366 
L 3122 2828 
Q 2878 2963 2633 3030 
Q 2388 3097 2138 3097 
Q 1578 3097 1268 2742 
Q 959 2388 959 1747 
Q 959 1106 1268 751 
Q 1578 397 2138 397 
Q 2388 397 2633 464 
Q 2878 531 3122 666 
L 3122 134 
Q 2881 22 2623 -34 
Q 2366 -91 2075 -91 
Q 1284 -91 818 406 
Q 353 903 353 1747 
Q 353 2603 823 3093 
Q 1294 3584 2113 3584 
Q 2378 3584 2631 3529 
Q 2884 3475 3122 3366 
z
" transform="scale(0.015625)"/>
       <path id="DejaVuSans-74" d="M 1172 4494 
L 1172 3500 
L 2356 3500 
L 2356 3053 
L 1172 3053 
L 1172 1153 
Q 1172 725 1289 603 
Q 1406 481 1766 481 
L 2356 481 
L 2356 0 
L 1766 0 
Q 1100 0 847 248 
Q 594 497 594 1153 
L 594 3053 
L 172 3053 
L 172 3500 
L 594 3500 
L 594 4494 
L 1172 4494 
z
" transform="scale(0.015625)"/>
       <path id="DejaVuSans-64" d="M 2906 2969 
L 2906 4863 
L 3481 4863 
L 3481 0 
L 2906 0 
L 2906 525 
Q 2725 213 2448 61 
Q 2172 -91 1784 -91 
Q 1150 -91 751 415 
Q 353 922 353 1747 
Q 353 2572 751 3078 
Q 1150 3584 1784 3584 
Q 2172 3584 2448 3432 
Q 2725 3281 2906 2969 
z
M 947 1747 
Q 947 1113 1208 752 
Q 1469 391 1925 391 
Q 2381 391 2643 752 
Q 2906 1113 2906 1747 
Q 2906 2381 2643 2742 
Q 2381 3103 1925 3103 
Q 1469 3103 1208 2742 
Q 947 2381 947 1747 
z
" transform="scale(0.015625)"/>
       <path id="DejaVuSans-20" transform="scale(0.015625)"/>
       <path id="DejaVuSans-50" d="M 1259 4147 
L 1259 2394 
L 2053 2394 
Q 2494 2394 2734 2622 
Q 2975 2850 2975 3272 
Q 2975 3691 2734 3919 
Q 2494 4147 2053 4147 
L 1259 4147 
z
M 628 4666 
L 2053 4666 
Q 2838 4666 3239 4311 
Q 3641 3956 3641 3272 
Q 3641 2581 3239 2228 
Q 2838 1875 2053 1875 
L 1259 1875 
L 1259 0 
L 628 0 
L 628 4666 
z
" transform="scale(0.015625)"/>
       <path id="DejaVuSans-6f" d="M 1959 3097 
Q 1497 3097 1228 2736 
Q 959 2375 959 1747 
Q 959 1119 1226 758 
Q 1494 397 1959 397 
Q 2419 397 2687 759 
Q 2956 1122 2956 1747 
Q 2956 2369 2687 2733 
Q 2419 3097 1959 3097 
z
M 1959 3584 
Q 2709 3584 3137 3096 
Q 3566 2609 3566 1747 
Q 3566 888 3137 398 
Q 2709 -91 1959 -91 
Q 1206 -91 779 398 
Q 353 888 353 1747 
Q 353 2609 779 3096 
Q 1206 3584 1959 3584 
z
" transform="scale(0.015625)"/>
       <path id="DejaVuSans-72" d="M 2631 2963 
Q 2534 3019 2420 3045 
Q 2306 3072 2169 3072 
Q 1681 3072 1420 2755 
Q 1159 2438 1159 1844 
L 1159 0 
L 581 0 
L 581 3500 
L 1159 3500 
L 1159 2956 
Q 1341 3275 1631 3429 
Q 1922 3584 2338 3584 
Q 2397 3584 2469 3576 
Q 2541 3569 2628 3553 
L 2631 2963 
z
" transform="scale(0.015625)"/>
       <path id="DejaVuSans-66" d="M 2375 4863 
L 2375 4384 
L 1825 4384 
Q 1516 4384 1395 4259 
Q 1275 4134 1275 3809 
L 1275 3500 
L 2222 3500 
L 2222 3053 
L 1275 3053 
L 1275 0 
L 697 0 
L 697 3053 
L 147 3053 
L 147 3500 
L 697 3500 
L 697 3744 
Q 697 4328 969 4595 
Q 1241 4863 1831 4863 
L 2375 4863 
z
" transform="scale(0.015625)"/>
       <path id="DejaVuSans-6c" d="M 603 4863 
L 1178 4863 
L 1178 0 
L 603 0 
L 603 4863 
z
" transform="scale(0.015625)"/>
       <path id="DejaVuSans-69" d="M 603 3500 
L 1178 3500 
L 1178 0 
L 603 0 
L 603 3500 
z
M 603 4863 
L 1178 4863 
L 1178 4134 
L 603 4134 
L 603 4863 
z
" transform="scale(0.015625)"/>
       <path id="DejaVuSans-52" d="M 2841 2188 
Q 3044 2119 3236 1894 
Q 3428 1669 3622 1275 
L 4263 0 
L 3584 0 
L 2988 1197 
Q 2756 1666 2539 1819 
Q 2322 1972 1947 1972 
L 1259 1972 
L 1259 0 
L 628 0 
L 628 4666 
L 2053 4666 
Q 2853 4666 3247 4331 
Q 3641 3997 3641 3322 
Q 3641 2881 3436 2590 
Q 3231 2300 2841 2188 
z
M 1259 4147 
L 1259 2491 
L 2053 2491 
Q 2509 2491 2742 2702 
Q 2975 2913 2975 3322 
Q 2975 3731 2742 3939 
Q 2509 4147 2053 4147 
L 1259 4147 
z
" transform="scale(0.015625)"/>
       <path id="DejaVuSans-75" d="M 544 1381 
L 544 3500 
L 1119 3500 
L 1119 1403 
Q 1119 906 1312 657 
Q 1506 409 1894 409 
Q 2359 409 2629 706 
Q 2900 1003 2900 1516 
L 2900 3500 
L 3475 3500 
L 3475 0 
L 2900 0 
L 2900 538 
Q 2691 219 2414 64 
Q 2138 -91 1772 -91 
Q 1169 -91 856 284 
Q 544 659 544 1381 
z
M 1991 3584 
L 1991 3584 
z
" transform="scale(0.015625)"/>
       <path id="DejaVuSans-6e" d="M 3513 2113 
L 3513 0 
L 2938 0 
L 2938 2094 
Q 2938 2591 2744 2837 
Q 2550 3084 2163 3084 
Q 1697 3084 1428 2787 
Q 1159 2491 1159 1978 
L 1159 0 
L 581 0 
L 581 3500 
L 1159 3500 
L 1159 2956 
Q 1366 3272 1645 3428 
Q 1925 3584 2291 3584 
Q 2894 3584 3203 3211 
Q 3513 2838 3513 2113 
z
" transform="scale(0.015625)"/>
      </defs>
      <use xlink:href="#DejaVuSans-45"/>
      <use xlink:href="#DejaVuSans-78" x="63.183594"/>
      <use xlink:href="#DejaVuSans-70" x="122.363281"/>
      <use xlink:href="#DejaVuSans-65" x="185.839844"/>
      <use xlink:href="#DejaVuSans-63" x="247.363281"/>
      <use xlink:href="#DejaVuSans-74" x="302.34375"/>
      <use xlink:href="#DejaVuSans-65" x="341.552734"/>
      <use xlink:href="#DejaVuSans-64" x="403.076172"/>
      <use xlink:href="#DejaVuSans-20" x="466.552734"/>
      <use xlink:href="#DejaVuSans-50" x="498.339844"/>
      <use xlink:href="#DejaVuSans-6f" x="555.017578"/>
      <use xlink:href="#DejaVuSans-72" x="616.199219"/>
      <use xlink:href="#DejaVuSans-74" x="657.3125"/>
      <use xlink:href="#DejaVuSans-66" x="696.521484"/>
      <use xlink:href="#DejaVuSans-6f" x="731.726562"/>
      <use xlink:href="#DejaVuSans-6c" x="792.908203"/>
      <use xlink:href="#DejaVuSans-69" x="820.691406"/>
      <use xlink:href="#DejaVuSans-6f" x="848.474609"/>
      <use xlink:href="#DejaVuSans-20" x="909.65625"/>
      <use xlink:href="#DejaVuSans-52" x="941.443359"/>
      <use xlink:href="#DejaVuSans-65" x="1006.425781"/>
      <use xlink:href="#DejaVuSans-74" x="1067.949219"/>
      <use xlink:href="#DejaVuSans-75" x="1107.158203"/>
      <use xlink:href="#DejaVuSans-72" x="1170.537109"/>
      <use xlink:href="#DejaVuSans-6e" x="1209.900391"/>
     </g>
    </g>
   </g>
   <g id="matplotlib.axis_2">
    <g id="ytick_1">
     <g id="line2d_10">
      <defs>
       <path id="m3e64ab7fe5" d="M 0 0 
L -3.5 0 
" style="stroke: #000000; stroke-width: 0.8"/>
      </defs>
      <g>
       <use xlink:href="#m3e64ab7fe5" x="57.6" y="307.584" style="stroke: #000000; stroke-width: 0.8"/>
      </g>
     </g>
     <g id="text_11">
      <!-- 0.0 -->
      <g transform="translate(34.696875 311.383219) scale(0.1 -0.1)">
       <use xlink:href="#DejaVuSans-30"/>
       <use xlink:href="#DejaVuSans-2e" x="63.623047"/>
       <use xlink:href="#DejaVuSans-30" x="95.410156"/>
      </g>
     </g>
    </g>
    <g id="ytick_2">
     <g id="line2d_11">
      <g>
       <use xlink:href="#m3e64ab7fe5" x="57.6" y="256.896" style="stroke: #000000; stroke-width: 0.8"/>
      </g>
     </g>
     <g id="text_12">
      <!-- 0.2 -->
      <g transform="translate(34.696875 260.695219) scale(0.1 -0.1)">
       <use xlink:href="#DejaVuSans-30"/>
       <use xlink:href="#DejaVuSans-2e" x="63.623047"/>
       <use xlink:href="#DejaVuSans-32" x="95.410156"/>
      </g>
     </g>
    </g>
    <g id="ytick_3">
     <g id="line2d_12">
      <g>
       <use xlink:href="#m3e64ab7fe5" x="57.6" y="206.208" style="stroke: #000000; stroke-width: 0.8"/>
      </g>
     </g>
     <g id="text_13">
      <!-- 0.4 -->
      <g transform="translate(34.696875 210.007219) scale(0.1 -0.1)">
       <use xlink:href="#DejaVuSans-30"/>
       <use xlink:href="#DejaVuSans-2e" x="63.623047"/>
       <use xlink:href="#DejaVuSans-34" x="95.410156"/>
      </g>
     </g>
    </g>
    <g id="ytick_4">
     <g id="line2d_13">
      <g>
       <use xlink:href="#m3e64ab7fe5" x="57.6" y="155.52" style="stroke: #000000; stroke-width: 0.8"/>
      </g>
     </g>
     <g id="text_14">
      <!-- 0.6 -->
      <g transform="translate(34.696875 159.319219) scale(0.1 -0.1)">
       <use xlink:href="#DejaVuSans-30"/>
       <use xlink:href="#DejaVuSans-2e" x="63.623047"/>
       <use xlink:href="#DejaVuSans-36" x="95.410156"/>
      </g>
     </g>
    </g>
    <g id="ytick_5">
     <g id="line2d_14">
      <g>
       <use xlink:href="#m3e64ab7fe5" x="57.6" y="104.832" style="stroke: #000000; stroke-width: 0.8"/>
      </g>
     </g>
     <g id="text_15">
      <!-- 0.8 -->
      <g transform="translate(34.696875 108.631219) scale(0.1 -0.1)">
       <use xlink:href="#DejaVuSans-30"/>
       <use xlink:href="#DejaVuSans-2e" x="63.623047"/>
       <use xlink:href="#DejaVuSans-38" x="95.410156"/>
      </g>
     </g>
    </g>
    <g id="ytick_6">
     <g id="line2d_15">
      <g>
       <use xlink:href="#m3e64ab7fe5" x="57.6" y="54.144" style="stroke: #000000; stroke-width: 0.8"/>
      </g>
     </g>
     <g id="text_16">
      <!-- 1.0 -->
      <g transform="translate(34.696875 57.943219) scale(0.1 -0.1)">
       <use xlink:href="#DejaVuSans-31"/>
       <use xlink:href="#DejaVuSans-2e" x="63.623047"/>
       <use xlink:href="#DejaVuSans-30" x="95.410156"/>
      </g>
     </g>
    </g>
   </g>
   <g id="patch_3">
    <path d="M 57.6 307.584 
L 57.6 41.472 
" style="fill: none; stroke: #000000; stroke-width: 0.8; stroke-linejoin: miter; stroke-linecap: square"/>
   </g>
   <g id="patch_4">
    <path d="M 414.72 307.584 
L 414.72 41.472 
" style="fill: none; stroke: #000000; stroke-width: 0.8; stroke-linejoin: miter; stroke-linecap: square"/>
   </g>
   <g id="patch_5">
    <path d="M 57.6 307.584 
L 414.72 307.584 
" style="fill: none; stroke: #000000; stroke-width: 0.8; stroke-linejoin: miter; stroke-linecap: square"/>
   </g>
   <g id="patch_6">
    <path d="M 57.6 41.472 
L 414.72 41.472 
" style="fill: none; stroke: #000000; stroke-width: 0.8; stroke-linejoin: miter; stroke-linecap: square"/>
   </g>
   <g id="text_17">
    <!-- Portfolio positions $w_i$ with different levels of return -->
    <g transform="translate(84.54 35.472) scale(0.12 -0.12)">
     <defs>
      <path id="DejaVuSans-73" d="M 2834 3397 
L 2834 2853 
Q 2591 2978 2328 3040 
Q 2066 3103 1784 3103 
Q 1356 3103 1142 2972 
Q 928 2841 928 2578 
Q 928 2378 1081 2264 
Q 1234 2150 1697 2047 
L 1894 2003 
Q 2506 1872 2764 1633 
Q 3022 1394 3022 966 
Q 3022 478 2636 193 
Q 2250 -91 1575 -91 
Q 1294 -91 989 -36 
Q 684 19 347 128 
L 347 722 
Q 666 556 975 473 
Q 1284 391 1588 391 
Q 1994 391 2212 530 
Q 2431 669 2431 922 
Q 2431 1156 2273 1281 
Q 2116 1406 1581 1522 
L 1381 1569 
Q 847 1681 609 1914 
Q 372 2147 372 2553 
Q 372 3047 722 3315 
Q 1072 3584 1716 3584 
Q 2034 3584 2315 3537 
Q 2597 3491 2834 3397 
z
" transform="scale(0.015625)"/>
      <path id="DejaVuSans-Oblique-77" d="M 544 3500 
L 1113 3500 
L 1259 684 
L 2566 3500 
L 3231 3500 
L 3425 684 
L 4666 3500 
L 5241 3500 
L 3641 0 
L 2969 0 
L 2797 2900 
L 1459 0 
L 781 0 
L 544 3500 
z
" transform="scale(0.015625)"/>
      <path id="DejaVuSans-Oblique-69" d="M 1172 4863 
L 1747 4863 
L 1606 4134 
L 1031 4134 
L 1172 4863 
z
M 909 3500 
L 1484 3500 
L 800 0 
L 225 0 
L 909 3500 
z
" transform="scale(0.015625)"/>
      <path id="DejaVuSans-77" d="M 269 3500 
L 844 3500 
L 1563 769 
L 2278 3500 
L 2956 3500 
L 3675 769 
L 4391 3500 
L 4966 3500 
L 4050 0 
L 3372 0 
L 2619 2869 
L 1863 0 
L 1184 0 
L 269 3500 
z
" transform="scale(0.015625)"/>
      <path id="DejaVuSans-68" d="M 3513 2113 
L 3513 0 
L 2938 0 
L 2938 2094 
Q 2938 2591 2744 2837 
Q 2550 3084 2163 3084 
Q 1697 3084 1428 2787 
Q 1159 2491 1159 1978 
L 1159 0 
L 581 0 
L 581 4863 
L 1159 4863 
L 1159 2956 
Q 1366 3272 1645 3428 
Q 1925 3584 2291 3584 
Q 2894 3584 3203 3211 
Q 3513 2838 3513 2113 
z
" transform="scale(0.015625)"/>
      <path id="DejaVuSans-76" d="M 191 3500 
L 800 3500 
L 1894 563 
L 2988 3500 
L 3597 3500 
L 2284 0 
L 1503 0 
L 191 3500 
z
" transform="scale(0.015625)"/>
     </defs>
     <use xlink:href="#DejaVuSans-50" transform="translate(0 0.015625)"/>
     <use xlink:href="#DejaVuSans-6f" transform="translate(60.302734 0.015625)"/>
     <use xlink:href="#DejaVuSans-72" transform="translate(121.484375 0.015625)"/>
     <use xlink:href="#DejaVuSans-74" transform="translate(162.597656 0.015625)"/>
     <use xlink:href="#DejaVuSans-66" transform="translate(201.806641 0.015625)"/>
     <use xlink:href="#DejaVuSans-6f" transform="translate(237.011719 0.015625)"/>
     <use xlink:href="#DejaVuSans-6c" transform="translate(298.193359 0.015625)"/>
     <use xlink:href="#DejaVuSans-69" transform="translate(325.976562 0.015625)"/>
     <use xlink:href="#DejaVuSans-6f" transform="translate(353.759766 0.015625)"/>
     <use xlink:href="#DejaVuSans-20" transform="translate(414.941406 0.015625)"/>
     <use xlink:href="#DejaVuSans-70" transform="translate(446.728516 0.015625)"/>
     <use xlink:href="#DejaVuSans-6f" transform="translate(510.205078 0.015625)"/>
     <use xlink:href="#DejaVuSans-73" transform="translate(571.386719 0.015625)"/>
     <use xlink:href="#DejaVuSans-69" transform="translate(623.486328 0.015625)"/>
     <use xlink:href="#DejaVuSans-74" transform="translate(651.269531 0.015625)"/>
     <use xlink:href="#DejaVuSans-69" transform="translate(690.478516 0.015625)"/>
     <use xlink:href="#DejaVuSans-6f" transform="translate(718.261719 0.015625)"/>
     <use xlink:href="#DejaVuSans-6e" transform="translate(779.443359 0.015625)"/>
     <use xlink:href="#DejaVuSans-73" transform="translate(842.822266 0.015625)"/>
     <use xlink:href="#DejaVuSans-20" transform="translate(894.921875 0.015625)"/>
     <use xlink:href="#DejaVuSans-Oblique-77" transform="translate(926.708984 0.015625)"/>
     <use xlink:href="#DejaVuSans-Oblique-69" transform="translate(1008.496094 -16.390625) scale(0.7)"/>
     <use xlink:href="#DejaVuSans-20" transform="translate(1030.678711 0.015625)"/>
     <use xlink:href="#DejaVuSans-77" transform="translate(1062.46582 0.015625)"/>
     <use xlink:href="#DejaVuSans-69" transform="translate(1144.25293 0.015625)"/>
     <use xlink:href="#DejaVuSans-74" transform="translate(1172.036133 0.015625)"/>
     <use xlink:href="#DejaVuSans-68" transform="translate(1211.245117 0.015625)"/>
     <use xlink:href="#DejaVuSans-20" transform="translate(1274.624023 0.015625)"/>
     <use xlink:href="#DejaVuSans-64" transform="translate(1306.411133 0.015625)"/>
     <use xlink:href="#DejaVuSans-69" transform="translate(1369.887695 0.015625)"/>
     <use xlink:href="#DejaVuSans-66" transform="translate(1397.670898 0.015625)"/>
     <use xlink:href="#DejaVuSans-66" transform="translate(1432.875977 0.015625)"/>
     <use xlink:href="#DejaVuSans-65" transform="translate(1468.081055 0.015625)"/>
     <use xlink:href="#DejaVuSans-72" transform="translate(1529.604492 0.015625)"/>
     <use xlink:href="#DejaVuSans-65" transform="translate(1570.717773 0.015625)"/>
     <use xlink:href="#DejaVuSans-6e" transform="translate(1632.241211 0.015625)"/>
     <use xlink:href="#DejaVuSans-74" transform="translate(1695.620117 0.015625)"/>
     <use xlink:href="#DejaVuSans-20" transform="translate(1734.829102 0.015625)"/>
     <use xlink:href="#DejaVuSans-6c" transform="translate(1766.616211 0.015625)"/>
     <use xlink:href="#DejaVuSans-65" transform="translate(1794.399414 0.015625)"/>
     <use xlink:href="#DejaVuSans-76" transform="translate(1855.922852 0.015625)"/>
     <use xlink:href="#DejaVuSans-65" transform="translate(1915.102539 0.015625)"/>
     <use xlink:href="#DejaVuSans-6c" transform="translate(1976.625977 0.015625)"/>
     <use xlink:href="#DejaVuSans-73" transform="translate(2004.40918 0.015625)"/>
     <use xlink:href="#DejaVuSans-20" transform="translate(2056.508789 0.015625)"/>
     <use xlink:href="#DejaVuSans-6f" transform="translate(2088.295898 0.015625)"/>
     <use xlink:href="#DejaVuSans-66" transform="translate(2149.477539 0.015625)"/>
     <use xlink:href="#DejaVuSans-20" transform="translate(2184.682617 0.015625)"/>
     <use xlink:href="#DejaVuSans-72" transform="translate(2216.469727 0.015625)"/>
     <use xlink:href="#DejaVuSans-65" transform="translate(2257.583008 0.015625)"/>
     <use xlink:href="#DejaVuSans-74" transform="translate(2319.106445 0.015625)"/>
     <use xlink:href="#DejaVuSans-75" transform="translate(2358.31543 0.015625)"/>
     <use xlink:href="#DejaVuSans-72" transform="translate(2421.694336 0.015625)"/>
     <use xlink:href="#DejaVuSans-6e" transform="translate(2462.807617 0.015625)"/>
    </g>
   </g>
   <g id="legend_1">
    <g id="patch_7">
     <path d="M 64.6 196.25325 
L 118.94375 196.25325 
Q 120.94375 196.25325 120.94375 194.25325 
L 120.94375 48.472 
Q 120.94375 46.472 118.94375 46.472 
L 64.6 46.472 
Q 62.6 46.472 62.6 48.472 
L 62.6 194.25325 
Q 62.6 196.25325 64.6 196.25325 
z
" style="fill: #ffffff; opacity: 0.8; stroke: #cccccc; stroke-linejoin: miter"/>
    </g>
    <g id="patch_8">
     <path d="M 66.6 58.070437 
L 86.6 58.070437 
L 86.6 51.070437 
L 66.6 51.070437 
z
" style="fill: #f77189; stroke: #000000; stroke-linejoin: miter"/>
    </g>
    <g id="text_18">
     <!-- w[0] -->
     <g transform="translate(94.6 58.070437) scale(0.1 -0.1)">
      <defs>
       <path id="DejaVuSans-5b" d="M 550 4863 
L 1875 4863 
L 1875 4416 
L 1125 4416 
L 1125 -397 
L 1875 -397 
L 1875 -844 
L 550 -844 
L 550 4863 
z
" transform="scale(0.015625)"/>
       <path id="DejaVuSans-5d" d="M 1947 4863 
L 1947 -844 
L 622 -844 
L 622 -397 
L 1369 -397 
L 1369 4416 
L 622 4416 
L 622 4863 
L 1947 4863 
z
" transform="scale(0.015625)"/>
      </defs>
      <use xlink:href="#DejaVuSans-77"/>
      <use xlink:href="#DejaVuSans-5b" x="81.787109"/>
      <use xlink:href="#DejaVuSans-30" x="120.800781"/>
      <use xlink:href="#DejaVuSans-5d" x="184.423828"/>
     </g>
    </g>
    <g id="patch_9">
     <path d="M 66.6 72.748562 
L 86.6 72.748562 
L 86.6 65.748562 
L 66.6 65.748562 
z
" style="fill: #dc8932; stroke: #000000; stroke-linejoin: miter"/>
    </g>
    <g id="text_19">
     <!-- w[1] -->
     <g transform="translate(94.6 72.748562) scale(0.1 -0.1)">
      <use xlink:href="#DejaVuSans-77"/>
      <use xlink:href="#DejaVuSans-5b" x="81.787109"/>
      <use xlink:href="#DejaVuSans-31" x="120.800781"/>
      <use xlink:href="#DejaVuSans-5d" x="184.423828"/>
     </g>
    </g>
    <g id="patch_10">
     <path d="M 66.6 87.426688 
L 86.6 87.426688 
L 86.6 80.426688 
L 66.6 80.426688 
z
" style="fill: #ae9d31; stroke: #000000; stroke-linejoin: miter"/>
    </g>
    <g id="text_20">
     <!-- w[2] -->
     <g transform="translate(94.6 87.426688) scale(0.1 -0.1)">
      <use xlink:href="#DejaVuSans-77"/>
      <use xlink:href="#DejaVuSans-5b" x="81.787109"/>
      <use xlink:href="#DejaVuSans-32" x="120.800781"/>
      <use xlink:href="#DejaVuSans-5d" x="184.423828"/>
     </g>
    </g>
    <g id="patch_11">
     <path d="M 66.6 102.104812 
L 86.6 102.104812 
L 86.6 95.104812 
L 66.6 95.104812 
z
" style="fill: #77ab31; stroke: #000000; stroke-linejoin: miter"/>
    </g>
    <g id="text_21">
     <!-- w[3] -->
     <g transform="translate(94.6 102.104812) scale(0.1 -0.1)">
      <use xlink:href="#DejaVuSans-77"/>
      <use xlink:href="#DejaVuSans-5b" x="81.787109"/>
      <use xlink:href="#DejaVuSans-33" x="120.800781"/>
      <use xlink:href="#DejaVuSans-5d" x="184.423828"/>
     </g>
    </g>
    <g id="patch_12">
     <path d="M 66.6 116.782938 
L 86.6 116.782938 
L 86.6 109.782938 
L 66.6 109.782938 
z
" style="fill: #33b07a; stroke: #000000; stroke-linejoin: miter"/>
    </g>
    <g id="text_22">
     <!-- w[4] -->
     <g transform="translate(94.6 116.782938) scale(0.1 -0.1)">
      <use xlink:href="#DejaVuSans-77"/>
      <use xlink:href="#DejaVuSans-5b" x="81.787109"/>
      <use xlink:href="#DejaVuSans-34" x="120.800781"/>
      <use xlink:href="#DejaVuSans-5d" x="184.423828"/>
     </g>
    </g>
    <g id="patch_13">
     <path d="M 66.6 131.461062 
L 86.6 131.461062 
L 86.6 124.461062 
L 66.6 124.461062 
z
" style="fill: #36ada4; stroke: #000000; stroke-linejoin: miter"/>
    </g>
    <g id="text_23">
     <!-- w[5] -->
     <g transform="translate(94.6 131.461062) scale(0.1 -0.1)">
      <use xlink:href="#DejaVuSans-77"/>
      <use xlink:href="#DejaVuSans-5b" x="81.787109"/>
      <use xlink:href="#DejaVuSans-35" x="120.800781"/>
      <use xlink:href="#DejaVuSans-5d" x="184.423828"/>
     </g>
    </g>
    <g id="patch_14">
     <path d="M 66.6 146.139187 
L 86.6 146.139187 
L 86.6 139.139187 
L 66.6 139.139187 
z
" style="fill: #38a9c5; stroke: #000000; stroke-linejoin: miter"/>
    </g>
    <g id="text_24">
     <!-- w[6] -->
     <g transform="translate(94.6 146.139187) scale(0.1 -0.1)">
      <use xlink:href="#DejaVuSans-77"/>
      <use xlink:href="#DejaVuSans-5b" x="81.787109"/>
      <use xlink:href="#DejaVuSans-36" x="120.800781"/>
      <use xlink:href="#DejaVuSans-5d" x="184.423828"/>
     </g>
    </g>
    <g id="patch_15">
     <path d="M 66.6 160.817312 
L 86.6 160.817312 
L 86.6 153.817312 
L 66.6 153.817312 
z
" style="fill: #6e9bf4; stroke: #000000; stroke-linejoin: miter"/>
    </g>
    <g id="text_25">
     <!-- w[7] -->
     <g transform="translate(94.6 160.817312) scale(0.1 -0.1)">
      <use xlink:href="#DejaVuSans-77"/>
      <use xlink:href="#DejaVuSans-5b" x="81.787109"/>
      <use xlink:href="#DejaVuSans-37" x="120.800781"/>
      <use xlink:href="#DejaVuSans-5d" x="184.423828"/>
     </g>
    </g>
    <g id="patch_16">
     <path d="M 66.6 175.495437 
L 86.6 175.495437 
L 86.6 168.495437 
L 66.6 168.495437 
z
" style="fill: #cc7af4; stroke: #000000; stroke-linejoin: miter"/>
    </g>
    <g id="text_26">
     <!-- w[8] -->
     <g transform="translate(94.6 175.495437) scale(0.1 -0.1)">
      <use xlink:href="#DejaVuSans-77"/>
      <use xlink:href="#DejaVuSans-5b" x="81.787109"/>
      <use xlink:href="#DejaVuSans-38" x="120.800781"/>
      <use xlink:href="#DejaVuSans-5d" x="184.423828"/>
     </g>
    </g>
    <g id="patch_17">
     <path d="M 66.6 190.173562 
L 86.6 190.173562 
L 86.6 183.173562 
L 66.6 183.173562 
z
" style="fill: #f565cc; stroke: #000000; stroke-linejoin: miter"/>
    </g>
    <g id="text_27">
     <!-- w[9] -->
     <g transform="translate(94.6 190.173562) scale(0.1 -0.1)">
      <defs>
       <path id="DejaVuSans-39" d="M 703 97 
L 703 672 
Q 941 559 1184 500 
Q 1428 441 1663 441 
Q 2288 441 2617 861 
Q 2947 1281 2994 2138 
Q 2813 1869 2534 1725 
Q 2256 1581 1919 1581 
Q 1219 1581 811 2004 
Q 403 2428 403 3163 
Q 403 3881 828 4315 
Q 1253 4750 1959 4750 
Q 2769 4750 3195 4129 
Q 3622 3509 3622 2328 
Q 3622 1225 3098 567 
Q 2575 -91 1691 -91 
Q 1453 -91 1209 -44 
Q 966 3 703 97 
z
M 1959 2075 
Q 2384 2075 2632 2365 
Q 2881 2656 2881 3163 
Q 2881 3666 2632 3958 
Q 2384 4250 1959 4250 
Q 1534 4250 1286 3958 
Q 1038 3666 1038 3163 
Q 1038 2656 1286 2365 
Q 1534 2075 1959 2075 
z
" transform="scale(0.015625)"/>
      </defs>
      <use xlink:href="#DejaVuSans-77"/>
      <use xlink:href="#DejaVuSans-5b" x="81.787109"/>
      <use xlink:href="#DejaVuSans-39" x="120.800781"/>
      <use xlink:href="#DejaVuSans-5d" x="184.423828"/>
     </g>
    </g>
   </g>
  </g>
 </g>
 <defs>
  <clipPath id="pfdeedf2f0d">
   <rect x="57.6" y="41.472" width="357.12" height="266.112"/>
  </clipPath>
 </defs>
</svg>
