<?xml version="1.0" encoding="utf-8" standalone="no"?>
<!DOCTYPE svg PUBLIC "-//W3C//DTD SVG 1.1//EN"
  "http://www.w3.org/Graphics/SVG/1.1/DTD/svg11.dtd">
<svg xmlns:xlink="http://www.w3.org/1999/xlink" width="396pt" height="396pt" viewBox="0 0 396 396" xmlns="http://www.w3.org/2000/svg" version="1.1">
 <metadata>
  <rdf:RDF xmlns:dc="http://purl.org/dc/elements/1.1/" xmlns:cc="http://creativecommons.org/ns#" xmlns:rdf="http://www.w3.org/1999/02/22-rdf-syntax-ns#">
   <cc:Work>
    <dc:type rdf:resource="http://purl.org/dc/dcmitype/StillImage"/>
    <dc:date>2022-09-19T10:23:29.551082</dc:date>
    <dc:format>image/svg+xml</dc:format>
    <dc:creator>
     <cc:Agent>
      <dc:title>Matplotlib v3.5.2, https://matplotlib.org/</dc:title>
     </cc:Agent>
    </dc:creator>
   </cc:Work>
  </rdf:RDF>
 </metadata>
 <defs>
  <style type="text/css">*{stroke-linejoin: round; stroke-linecap: butt}</style>
 </defs>
 <g id="figure_1">
  <g id="patch_1">
   <path d="M 0 396 
L 396 396 
L 396 0 
L 0 0 
z
" style="fill: #ffffff"/>
  </g>
  <g id="axes_1">
   <g id="patch_2">
    <path d="M 50.49 352.44 
L 355.41 352.44 
L 355.41 47.52 
L 50.49 47.52 
z
" style="fill: #ffffff"/>
   </g>
   <g id="matplotlib.axis_1">
    <g id="xtick_1">
     <g id="line2d_1">
      <path d="M 100.281297 352.44 
L 100.281297 47.52 
" clip-path="url(#p1780eedcd5)" style="fill: none; stroke: #b0b0b0; stroke-width: 0.8; stroke-linecap: square"/>
     </g>
     <g id="line2d_2">
      <defs>
       <path id="mae58ba9d87" d="M 0 0 
L 0 3.5 
" style="stroke: #000000; stroke-width: 0.8"/>
      </defs>
      <g>
       <use xlink:href="#mae58ba9d87" x="100.281297" y="352.44" style="stroke: #000000; stroke-width: 0.8"/>
      </g>
     </g>
     <g id="text_1">
      <!-- −1.0 -->
      <g transform="translate(88.139891 367.038437)scale(0.1 -0.1)">
       <defs>
        <path id="DejaVuSans-2212" d="M 678 2272 
L 4684 2272 
L 4684 1741 
L 678 1741 
L 678 2272 
z
" transform="scale(0.015625)"/>
        <path id="DejaVuSans-31" d="M 794 531 
L 1825 531 
L 1825 4091 
L 703 3866 
L 703 4441 
L 1819 4666 
L 2450 4666 
L 2450 531 
L 3481 531 
L 3481 0 
L 794 0 
L 794 531 
z
" transform="scale(0.015625)"/>
        <path id="DejaVuSans-2e" d="M 684 794 
L 1344 794 
L 1344 0 
L 684 0 
L 684 794 
z
" transform="scale(0.015625)"/>
        <path id="DejaVuSans-30" d="M 2034 4250 
Q 1547 4250 1301 3770 
Q 1056 3291 1056 2328 
Q 1056 1369 1301 889 
Q 1547 409 2034 409 
Q 2525 409 2770 889 
Q 3016 1369 3016 2328 
Q 3016 3291 2770 3770 
Q 2525 4250 2034 4250 
z
M 2034 4750 
Q 2819 4750 3233 4129 
Q 3647 3509 3647 2328 
Q 3647 1150 3233 529 
Q 2819 -91 2034 -91 
Q 1250 -91 836 529 
Q 422 1150 422 2328 
Q 422 3509 836 4129 
Q 1250 4750 2034 4750 
z
" transform="scale(0.015625)"/>
       </defs>
       <use xlink:href="#DejaVuSans-2212"/>
       <use xlink:href="#DejaVuSans-31" x="83.789062"/>
       <use xlink:href="#DejaVuSans-2e" x="147.412109"/>
       <use xlink:href="#DejaVuSans-30" x="179.199219"/>
      </g>
     </g>
    </g>
    <g id="xtick_2">
     <g id="line2d_3">
      <path d="M 151.615649 352.44 
L 151.615649 47.52 
" clip-path="url(#p1780eedcd5)" style="fill: none; stroke: #b0b0b0; stroke-width: 0.8; stroke-linecap: square"/>
     </g>
     <g id="line2d_4">
      <g>
       <use xlink:href="#mae58ba9d87" x="151.615649" y="352.44" style="stroke: #000000; stroke-width: 0.8"/>
      </g>
     </g>
     <g id="text_2">
      <!-- −0.5 -->
      <g transform="translate(139.474242 367.038437)scale(0.1 -0.1)">
       <defs>
        <path id="DejaVuSans-35" d="M 691 4666 
L 3169 4666 
L 3169 4134 
L 1269 4134 
L 1269 2991 
Q 1406 3038 1543 3061 
Q 1681 3084 1819 3084 
Q 2600 3084 3056 2656 
Q 3513 2228 3513 1497 
Q 3513 744 3044 326 
Q 2575 -91 1722 -91 
Q 1428 -91 1123 -41 
Q 819 9 494 109 
L 494 744 
Q 775 591 1075 516 
Q 1375 441 1709 441 
Q 2250 441 2565 725 
Q 2881 1009 2881 1497 
Q 2881 1984 2565 2268 
Q 2250 2553 1709 2553 
Q 1456 2553 1204 2497 
Q 953 2441 691 2322 
L 691 4666 
z
" transform="scale(0.015625)"/>
       </defs>
       <use xlink:href="#DejaVuSans-2212"/>
       <use xlink:href="#DejaVuSans-30" x="83.789062"/>
       <use xlink:href="#DejaVuSans-2e" x="147.412109"/>
       <use xlink:href="#DejaVuSans-35" x="179.199219"/>
      </g>
     </g>
    </g>
    <g id="xtick_3">
     <g id="line2d_5">
      <path d="M 202.95 352.44 
L 202.95 47.52 
" clip-path="url(#p1780eedcd5)" style="fill: none; stroke: #b0b0b0; stroke-width: 0.8; stroke-linecap: square"/>
     </g>
     <g id="line2d_6">
      <g>
       <use xlink:href="#mae58ba9d87" x="202.95" y="352.44" style="stroke: #000000; stroke-width: 0.8"/>
      </g>
     </g>
     <g id="text_3">
      <!-- 0.0 -->
      <g transform="translate(194.998437 367.038437)scale(0.1 -0.1)">
       <use xlink:href="#DejaVuSans-30"/>
       <use xlink:href="#DejaVuSans-2e" x="63.623047"/>
       <use xlink:href="#DejaVuSans-30" x="95.410156"/>
      </g>
     </g>
    </g>
    <g id="xtick_4">
     <g id="line2d_7">
      <path d="M 254.284351 352.44 
L 254.284351 47.52 
" clip-path="url(#p1780eedcd5)" style="fill: none; stroke: #b0b0b0; stroke-width: 0.8; stroke-linecap: square"/>
     </g>
     <g id="line2d_8">
      <g>
       <use xlink:href="#mae58ba9d87" x="254.284351" y="352.44" style="stroke: #000000; stroke-width: 0.8"/>
      </g>
     </g>
     <g id="text_4">
      <!-- 0.5 -->
      <g transform="translate(246.332789 367.038437)scale(0.1 -0.1)">
       <use xlink:href="#DejaVuSans-30"/>
       <use xlink:href="#DejaVuSans-2e" x="63.623047"/>
       <use xlink:href="#DejaVuSans-35" x="95.410156"/>
      </g>
     </g>
    </g>
    <g id="xtick_5">
     <g id="line2d_9">
      <path d="M 305.618703 352.44 
L 305.618703 47.52 
" clip-path="url(#p1780eedcd5)" style="fill: none; stroke: #b0b0b0; stroke-width: 0.8; stroke-linecap: square"/>
     </g>
     <g id="line2d_10">
      <g>
       <use xlink:href="#mae58ba9d87" x="305.618703" y="352.44" style="stroke: #000000; stroke-width: 0.8"/>
      </g>
     </g>
     <g id="text_5">
      <!-- 1.0 -->
      <g transform="translate(297.66714 367.038437)scale(0.1 -0.1)">
       <use xlink:href="#DejaVuSans-31"/>
       <use xlink:href="#DejaVuSans-2e" x="63.623047"/>
       <use xlink:href="#DejaVuSans-30" x="95.410156"/>
      </g>
     </g>
    </g>
    <g id="text_6">
     <!-- y [m] -->
     <g transform="translate(189.629687 380.716563)scale(0.1 -0.1)">
      <defs>
       <path id="DejaVuSans-79" d="M 2059 -325 
Q 1816 -950 1584 -1140 
Q 1353 -1331 966 -1331 
L 506 -1331 
L 506 -850 
L 844 -850 
Q 1081 -850 1212 -737 
Q 1344 -625 1503 -206 
L 1606 56 
L 191 3500 
L 800 3500 
L 1894 763 
L 2988 3500 
L 3597 3500 
L 2059 -325 
z
" transform="scale(0.015625)"/>
       <path id="DejaVuSans-20" transform="scale(0.015625)"/>
       <path id="DejaVuSans-5b" d="M 550 4863 
L 1875 4863 
L 1875 4416 
L 1125 4416 
L 1125 -397 
L 1875 -397 
L 1875 -844 
L 550 -844 
L 550 4863 
z
" transform="scale(0.015625)"/>
       <path id="DejaVuSans-6d" d="M 3328 2828 
Q 3544 3216 3844 3400 
Q 4144 3584 4550 3584 
Q 5097 3584 5394 3201 
Q 5691 2819 5691 2113 
L 5691 0 
L 5113 0 
L 5113 2094 
Q 5113 2597 4934 2840 
Q 4756 3084 4391 3084 
Q 3944 3084 3684 2787 
Q 3425 2491 3425 1978 
L 3425 0 
L 2847 0 
L 2847 2094 
Q 2847 2600 2669 2842 
Q 2491 3084 2119 3084 
Q 1678 3084 1418 2786 
Q 1159 2488 1159 1978 
L 1159 0 
L 581 0 
L 581 3500 
L 1159 3500 
L 1159 2956 
Q 1356 3278 1631 3431 
Q 1906 3584 2284 3584 
Q 2666 3584 2933 3390 
Q 3200 3197 3328 2828 
z
" transform="scale(0.015625)"/>
       <path id="DejaVuSans-5d" d="M 1947 4863 
L 1947 -844 
L 622 -844 
L 622 -397 
L 1369 -397 
L 1369 4416 
L 622 4416 
L 622 4863 
L 1947 4863 
z
" transform="scale(0.015625)"/>
      </defs>
      <use xlink:href="#DejaVuSans-79"/>
      <use xlink:href="#DejaVuSans-20" x="59.179688"/>
      <use xlink:href="#DejaVuSans-5b" x="90.966797"/>
      <use xlink:href="#DejaVuSans-6d" x="129.980469"/>
      <use xlink:href="#DejaVuSans-5d" x="227.392578"/>
     </g>
    </g>
   </g>
   <g id="matplotlib.axis_2">
    <g id="ytick_1">
     <g id="line2d_11">
      <path d="M 50.49 302.657223 
L 355.41 302.657223 
" clip-path="url(#p1780eedcd5)" style="fill: none; stroke: #b0b0b0; stroke-width: 0.8; stroke-linecap: square"/>
     </g>
     <g id="line2d_12">
      <defs>
       <path id="m57f91c4b98" d="M 0 0 
L -3.5 0 
" style="stroke: #000000; stroke-width: 0.8"/>
      </defs>
      <g>
       <use xlink:href="#m57f91c4b98" x="50.49" y="302.657223" style="stroke: #000000; stroke-width: 0.8"/>
      </g>
     </g>
     <g id="text_7">
      <!-- −1.0 -->
      <g transform="translate(19.207187 306.456441)scale(0.1 -0.1)">
       <use xlink:href="#DejaVuSans-2212"/>
       <use xlink:href="#DejaVuSans-31" x="83.789062"/>
       <use xlink:href="#DejaVuSans-2e" x="147.412109"/>
       <use xlink:href="#DejaVuSans-30" x="179.199219"/>
      </g>
     </g>
    </g>
    <g id="ytick_2">
     <g id="line2d_13">
      <path d="M 50.49 251.322871 
L 355.41 251.322871 
" clip-path="url(#p1780eedcd5)" style="fill: none; stroke: #b0b0b0; stroke-width: 0.8; stroke-linecap: square"/>
     </g>
     <g id="line2d_14">
      <g>
       <use xlink:href="#m57f91c4b98" x="50.49" y="251.322871" style="stroke: #000000; stroke-width: 0.8"/>
      </g>
     </g>
     <g id="text_8">
      <!-- −0.5 -->
      <g transform="translate(19.207187 255.12209)scale(0.1 -0.1)">
       <use xlink:href="#DejaVuSans-2212"/>
       <use xlink:href="#DejaVuSans-30" x="83.789062"/>
       <use xlink:href="#DejaVuSans-2e" x="147.412109"/>
       <use xlink:href="#DejaVuSans-35" x="179.199219"/>
      </g>
     </g>
    </g>
    <g id="ytick_3">
     <g id="line2d_15">
      <path d="M 50.49 199.98852 
L 355.41 199.98852 
" clip-path="url(#p1780eedcd5)" style="fill: none; stroke: #b0b0b0; stroke-width: 0.8; stroke-linecap: square"/>
     </g>
     <g id="line2d_16">
      <g>
       <use xlink:href="#m57f91c4b98" x="50.49" y="199.98852" style="stroke: #000000; stroke-width: 0.8"/>
      </g>
     </g>
     <g id="text_9">
      <!-- 0.0 -->
      <g transform="translate(27.586875 203.787739)scale(0.1 -0.1)">
       <use xlink:href="#DejaVuSans-30"/>
       <use xlink:href="#DejaVuSans-2e" x="63.623047"/>
       <use xlink:href="#DejaVuSans-30" x="95.410156"/>
      </g>
     </g>
    </g>
    <g id="ytick_4">
     <g id="line2d_17">
      <path d="M 50.49 148.654169 
L 355.41 148.654169 
" clip-path="url(#p1780eedcd5)" style="fill: none; stroke: #b0b0b0; stroke-width: 0.8; stroke-linecap: square"/>
     </g>
     <g id="line2d_18">
      <g>
       <use xlink:href="#m57f91c4b98" x="50.49" y="148.654169" style="stroke: #000000; stroke-width: 0.8"/>
      </g>
     </g>
     <g id="text_10">
      <!-- 0.5 -->
      <g transform="translate(27.586875 152.453387)scale(0.1 -0.1)">
       <use xlink:href="#DejaVuSans-30"/>
       <use xlink:href="#DejaVuSans-2e" x="63.623047"/>
       <use xlink:href="#DejaVuSans-35" x="95.410156"/>
      </g>
     </g>
    </g>
    <g id="ytick_5">
     <g id="line2d_19">
      <path d="M 50.49 97.319817 
L 355.41 97.319817 
" clip-path="url(#p1780eedcd5)" style="fill: none; stroke: #b0b0b0; stroke-width: 0.8; stroke-linecap: square"/>
     </g>
     <g id="line2d_20">
      <g>
       <use xlink:href="#m57f91c4b98" x="50.49" y="97.319817" style="stroke: #000000; stroke-width: 0.8"/>
      </g>
     </g>
     <g id="text_11">
      <!-- 1.0 -->
      <g transform="translate(27.586875 101.119036)scale(0.1 -0.1)">
       <use xlink:href="#DejaVuSans-31"/>
       <use xlink:href="#DejaVuSans-2e" x="63.623047"/>
       <use xlink:href="#DejaVuSans-30" x="95.410156"/>
      </g>
     </g>
    </g>
    <g id="text_12">
     <!-- x [m] -->
     <g transform="translate(13.1275 213.300312)rotate(-90)scale(0.1 -0.1)">
      <defs>
       <path id="DejaVuSans-78" d="M 3513 3500 
L 2247 1797 
L 3578 0 
L 2900 0 
L 1881 1375 
L 863 0 
L 184 0 
L 1544 1831 
L 300 3500 
L 978 3500 
L 1906 2253 
L 2834 3500 
L 3513 3500 
z
" transform="scale(0.015625)"/>
      </defs>
      <use xlink:href="#DejaVuSans-78"/>
      <use xlink:href="#DejaVuSans-20" x="59.179688"/>
      <use xlink:href="#DejaVuSans-5b" x="90.966797"/>
      <use xlink:href="#DejaVuSans-6d" x="129.980469"/>
      <use xlink:href="#DejaVuSans-5d" x="227.392578"/>
     </g>
    </g>
   </g>
   <g id="line2d_21">
    <defs>
     <path id="m3c11308123" d="M 0 5 
C 1.326016 5 2.597899 4.473168 3.535534 3.535534 
C 4.473168 2.597899 5 1.326016 5 0 
C 5 -1.326016 4.473168 -2.597899 3.535534 -3.535534 
C 2.597899 -4.473168 1.326016 -5 0 -5 
C -1.326016 -5 -2.597899 -4.473168 -3.535534 -3.535534 
C -4.473168 -2.597899 -5 -1.326016 -5 0 
C -5 1.326016 -4.473168 2.597899 -3.535534 3.535534 
C -2.597899 4.473168 -1.326016 5 0 5 
z
" style="stroke: #000000"/>
    </defs>
    <g clip-path="url(#p1780eedcd5)">
     <use xlink:href="#m3c11308123" x="305.618703" y="199.98852" style="stroke: #000000"/>
     <use xlink:href="#m3c11308123" x="275.547736" y="127.390784" style="stroke: #000000"/>
     <use xlink:href="#m3c11308123" x="202.95" y="97.319817" style="stroke: #000000"/>
     <use xlink:href="#m3c11308123" x="130.352264" y="127.390784" style="stroke: #000000"/>
     <use xlink:href="#m3c11308123" x="100.281297" y="199.98852" style="stroke: #000000"/>
     <use xlink:href="#m3c11308123" x="130.352264" y="272.586256" style="stroke: #000000"/>
     <use xlink:href="#m3c11308123" x="202.95" y="302.657223" style="stroke: #000000"/>
     <use xlink:href="#m3c11308123" x="275.547736" y="272.586256" style="stroke: #000000"/>
    </g>
   </g>
   <g id="line2d_22">
    <path d="M 305.618703 164.054474 
L 309.168498 164.23024 
L 312.683567 164.755817 
L 316.129523 165.626065 
L 319.472655 166.83247 
L 322.680258 168.36323 
L 325.720953 170.20337 
L 328.564995 172.334889 
L 331.18456 174.736934 
L 333.554022 177.386008 
L 335.650202 180.256194 
L 337.452594 183.319416 
L 338.943565 186.545706 
L 340.108529 189.903504 
L 340.93609 193.359959 
L 341.418152 196.88126 
L 341.55 200.432958 
L 341.330343 203.980308 
L 340.761331 207.488608 
L 339.84853 210.923537 
L 338.600869 214.251492 
L 337.030554 217.439917 
L 335.152947 220.457621 
L 332.986415 223.275082 
L 330.552155 225.864737 
L 327.873978 228.201254 
L 324.978085 230.261775 
L 321.892805 232.026142 
L 318.648321 233.477096 
L 315.276372 234.600441 
L 311.809945 235.385189 
L 308.282952 235.823662 
L 304.729895 235.911572 
L 301.185532 235.648058 
L 297.684538 235.035698 
L 294.261162 234.080483 
L 290.948893 232.791757 
L 287.780133 231.182127 
L 284.785883 229.26734 
L 281.995434 227.066128 
L 279.436084 224.600024 
L 277.132869 221.893153 
L 275.108323 218.971997 
L 273.38225 215.865131 
L 271.971536 212.602949 
L 270.889981 209.217365 
L 270.148167 205.741498 
L 269.753349 202.209351 
L 269.709391 198.655478 
L 270.016722 195.114646 
L 270.672336 191.621494 
L 271.669819 188.210193 
L 272.999414 184.914117 
L 274.648112 181.765508 
L 276.599786 178.795169 
L 278.835342 176.032158 
L 281.332912 173.503505 
L 284.068062 171.233946 
L 287.014035 169.245683 
L 290.142012 167.558169 
L 293.421392 166.18791 
L 296.820094 165.148311 
L 300.30487 164.449544 
L 303.84163 164.098442 
L 305.618703 164.054474 
L 305.618703 164.054474 
" clip-path="url(#p1780eedcd5)" style="fill: none; stroke: #0000ff; stroke-width: 1.5; stroke-linecap: square"/>
   </g>
   <g id="line2d_23">
    <path d="M 275.547736 91.456738 
L 279.097532 91.632504 
L 282.612601 92.158081 
L 286.058557 93.028329 
L 289.401688 94.234734 
L 292.609291 95.765494 
L 295.649987 97.605634 
L 298.494028 99.737153 
L 301.113593 102.139198 
L 303.483056 104.788272 
L 305.579236 107.658458 
L 307.381627 110.72168 
L 308.872598 113.947971 
L 310.037562 117.305768 
L 310.865123 120.762223 
L 311.347185 124.283524 
L 311.479033 127.835222 
L 311.259377 131.382572 
L 310.690364 134.890872 
L 309.777563 138.325801 
L 308.529902 141.653756 
L 306.959587 144.842181 
L 305.08198 147.859885 
L 302.915449 150.677346 
L 300.481188 153.267002 
L 297.803011 155.603519 
L 294.907118 157.664039 
L 291.821838 159.428407 
L 288.577354 160.87936 
L 285.205405 162.002705 
L 281.738979 162.787453 
L 278.211985 163.225927 
L 274.658928 163.313836 
L 271.114566 163.050322 
L 267.613572 162.437962 
L 264.190195 161.482747 
L 260.877926 160.194021 
L 257.709167 158.584391 
L 254.714917 156.669604 
L 251.924467 154.468392 
L 249.365117 152.002288 
L 247.061903 149.295418 
L 245.037356 146.374261 
L 243.311283 143.267395 
L 241.900569 140.005214 
L 240.819015 136.619629 
L 240.0772 133.143762 
L 239.682383 129.611615 
L 239.638424 126.057742 
L 239.945755 122.51691 
L 240.601369 119.023758 
L 241.598853 115.612457 
L 242.928447 112.316381 
L 244.577145 109.167772 
L 246.528819 106.197433 
L 248.764376 103.434422 
L 251.261945 100.905769 
L 253.997095 98.63621 
L 256.943068 96.647948 
L 260.071045 94.960433 
L 263.350425 93.590174 
L 266.749127 92.550576 
L 270.233904 91.851808 
L 273.770664 91.500707 
L 275.547736 91.456738 
L 275.547736 91.456738 
" clip-path="url(#p1780eedcd5)" style="fill: none; stroke: #ff0000; stroke-width: 1.5; stroke-linecap: square"/>
   </g>
   <g id="line2d_24">
    <path d="M 202.95 61.385772 
L 206.499796 61.561537 
L 210.014865 62.087115 
L 213.460821 62.957363 
L 216.803953 64.163767 
L 220.011556 65.694527 
L 223.052251 67.534667 
L 225.896292 69.666186 
L 228.515857 72.068231 
L 230.88532 74.717305 
L 232.9815 77.587492 
L 234.783891 80.650714 
L 236.274862 83.877004 
L 237.439826 87.234801 
L 238.267387 90.691257 
L 238.74945 94.212557 
L 238.881297 97.764255 
L 238.661641 101.311606 
L 238.092628 104.819906 
L 237.179827 108.254835 
L 235.932166 111.58279 
L 234.361851 114.771215 
L 232.484244 117.788918 
L 230.317713 120.606379 
L 227.883452 123.196035 
L 225.205275 125.532552 
L 222.309382 127.593073 
L 219.224102 129.35744 
L 215.979618 130.808393 
L 212.607669 131.931738 
L 209.141243 132.716486 
L 205.614249 133.15496 
L 202.061192 133.24287 
L 198.51683 132.979356 
L 195.015836 132.366996 
L 191.592459 131.41178 
L 188.28019 130.123054 
L 185.111431 128.513424 
L 182.117181 126.598637 
L 179.326731 124.397425 
L 176.767381 121.931321 
L 174.464167 119.224451 
L 172.43962 116.303294 
L 170.713547 113.196428 
L 169.302833 109.934247 
L 168.221279 106.548662 
L 167.479464 103.072795 
L 167.084647 99.540648 
L 167.040688 95.986775 
L 167.34802 92.445943 
L 168.003634 88.952791 
L 169.001117 85.541491 
L 170.330711 82.245414 
L 171.979409 79.096805 
L 173.931083 76.126466 
L 176.16664 73.363456 
L 178.66421 70.834802 
L 181.399359 68.565243 
L 184.345332 66.576981 
L 187.473309 64.889466 
L 190.752689 63.519207 
L 194.151391 62.479609 
L 197.636168 61.780841 
L 201.172928 61.42974 
L 202.95 61.385772 
L 202.95 61.385772 
" clip-path="url(#p1780eedcd5)" style="fill: none; stroke: #0000ff; stroke-width: 1.5; stroke-linecap: square"/>
   </g>
   <g id="line2d_25">
    <path d="M 130.352264 91.456738 
L 133.90206 91.632504 
L 137.417129 92.158081 
L 140.863085 93.028329 
L 144.206217 94.234734 
L 147.41382 95.765494 
L 150.454515 97.605634 
L 153.298556 99.737153 
L 155.918121 102.139198 
L 158.287584 104.788272 
L 160.383764 107.658458 
L 162.186155 110.72168 
L 163.677126 113.947971 
L 164.84209 117.305768 
L 165.669651 120.762223 
L 166.151714 124.283524 
L 166.283562 127.835222 
L 166.063905 131.382572 
L 165.494893 134.890872 
L 164.582091 138.325801 
L 163.33443 141.653756 
L 161.764115 144.842181 
L 159.886508 147.859885 
L 157.719977 150.677346 
L 155.285716 153.267002 
L 152.607539 155.603519 
L 149.711646 157.664039 
L 146.626366 159.428407 
L 143.381882 160.87936 
L 140.009934 162.002705 
L 136.543507 162.787453 
L 133.016513 163.225927 
L 129.463456 163.313836 
L 125.919094 163.050322 
L 122.4181 162.437962 
L 118.994724 161.482747 
L 115.682454 160.194021 
L 112.513695 158.584391 
L 109.519445 156.669604 
L 106.728996 154.468392 
L 104.169645 152.002288 
L 101.866431 149.295418 
L 99.841885 146.374261 
L 98.115812 143.267395 
L 96.705097 140.005214 
L 95.623543 136.619629 
L 94.881728 133.143762 
L 94.486911 129.611615 
L 94.442953 126.057742 
L 94.750284 122.51691 
L 95.405898 119.023758 
L 96.403381 115.612457 
L 97.732975 112.316381 
L 99.381674 109.167772 
L 101.333347 106.197433 
L 103.568904 103.434422 
L 106.066474 100.905769 
L 108.801624 98.63621 
L 111.747597 96.647948 
L 114.875573 94.960433 
L 118.154953 93.590174 
L 121.553656 92.550576 
L 125.038432 91.851808 
L 128.575192 91.500707 
L 130.352264 91.456738 
L 130.352264 91.456738 
" clip-path="url(#p1780eedcd5)" style="fill: none; stroke: #ff0000; stroke-width: 1.5; stroke-linecap: square"/>
   </g>
   <g id="line2d_26">
    <path d="M 100.281297 164.054474 
L 103.831093 164.23024 
L 107.346162 164.755817 
L 110.792118 165.626065 
L 114.13525 166.83247 
L 117.342853 168.36323 
L 120.383548 170.20337 
L 123.22759 172.334889 
L 125.847155 174.736934 
L 128.216617 177.386008 
L 130.312797 180.256194 
L 132.115189 183.319416 
L 133.606159 186.545706 
L 134.771123 189.903504 
L 135.598685 193.359959 
L 136.080747 196.88126 
L 136.212595 200.432958 
L 135.992938 203.980308 
L 135.423926 207.488608 
L 134.511124 210.923537 
L 133.263463 214.251492 
L 131.693149 217.439917 
L 129.815541 220.457621 
L 127.64901 223.275082 
L 125.214749 225.864737 
L 122.536573 228.201254 
L 119.640679 230.261775 
L 116.5554 232.026142 
L 113.310915 233.477096 
L 109.938967 234.600441 
L 106.47254 235.385189 
L 102.945546 235.823662 
L 99.392489 235.911572 
L 95.848127 235.648058 
L 92.347133 235.035698 
L 88.923757 234.080483 
L 85.611487 232.791757 
L 82.442728 231.182127 
L 79.448478 229.26734 
L 76.658029 227.066128 
L 74.098678 224.600024 
L 71.795464 221.893153 
L 69.770918 218.971997 
L 68.044845 215.865131 
L 66.634131 212.602949 
L 65.552576 209.217365 
L 64.810762 205.741498 
L 64.415944 202.209351 
L 64.371986 198.655478 
L 64.679317 195.114646 
L 65.334931 191.621494 
L 66.332414 188.210193 
L 67.662008 184.914117 
L 69.310707 181.765508 
L 71.262381 178.795169 
L 73.497937 176.032158 
L 75.995507 173.503505 
L 78.730657 171.233946 
L 81.67663 169.245683 
L 84.804606 167.558169 
L 88.083986 166.18791 
L 91.482689 165.148311 
L 94.967465 164.449544 
L 98.504225 164.098442 
L 100.281297 164.054474 
L 100.281297 164.054474 
" clip-path="url(#p1780eedcd5)" style="fill: none; stroke: #0000ff; stroke-width: 1.5; stroke-linecap: square"/>
   </g>
   <g id="line2d_27">
    <path d="M 130.352264 236.65221 
L 133.90206 236.827976 
L 137.417129 237.353553 
L 140.863085 238.223801 
L 144.206217 239.430206 
L 147.41382 240.960966 
L 150.454515 242.801106 
L 153.298556 244.932624 
L 155.918121 247.33467 
L 158.287584 249.983743 
L 160.383764 252.85393 
L 162.186155 255.917152 
L 163.677126 259.143442 
L 164.84209 262.501239 
L 165.669651 265.957695 
L 166.151714 269.478996 
L 166.283562 273.030694 
L 166.063905 276.578044 
L 165.494893 280.086344 
L 164.582091 283.521273 
L 163.33443 286.849228 
L 161.764115 290.037653 
L 159.886508 293.055357 
L 157.719977 295.872817 
L 155.285716 298.462473 
L 152.607539 300.79899 
L 149.711646 302.859511 
L 146.626366 304.623878 
L 143.381882 306.074832 
L 140.009934 307.198177 
L 136.543507 307.982925 
L 133.016513 308.421398 
L 129.463456 308.509308 
L 125.919094 308.245794 
L 122.4181 307.633434 
L 118.994724 306.678219 
L 115.682454 305.389493 
L 112.513695 303.779863 
L 109.519445 301.865076 
L 106.728996 299.663864 
L 104.169645 297.19776 
L 101.866431 294.490889 
L 99.841885 291.569733 
L 98.115812 288.462867 
L 96.705097 285.200685 
L 95.623543 281.815101 
L 94.881728 278.339233 
L 94.486911 274.807086 
L 94.442953 271.253214 
L 94.750284 267.712382 
L 95.405898 264.21923 
L 96.403381 260.807929 
L 97.732975 257.511852 
L 99.381674 254.363244 
L 101.333347 251.392905 
L 103.568904 248.629894 
L 106.066474 246.10124 
L 108.801624 243.831681 
L 111.747597 241.843419 
L 114.875573 240.155905 
L 118.154953 238.785646 
L 121.553656 237.746047 
L 125.038432 237.047279 
L 128.575192 236.696178 
L 130.352264 236.65221 
L 130.352264 236.65221 
" clip-path="url(#p1780eedcd5)" style="fill: none; stroke: #ff0000; stroke-width: 1.5; stroke-linecap: square"/>
   </g>
   <g id="line2d_28">
    <path d="M 202.95 266.723177 
L 206.499796 266.898942 
L 210.014865 267.42452 
L 213.460821 268.294768 
L 216.803953 269.501173 
L 220.011556 271.031933 
L 223.052251 272.872073 
L 225.896292 275.003591 
L 228.515857 277.405637 
L 230.88532 280.05471 
L 232.9815 282.924897 
L 234.783891 285.988119 
L 236.274862 289.214409 
L 237.439826 292.572206 
L 238.267387 296.028662 
L 238.74945 299.549963 
L 238.881297 303.101661 
L 238.661641 306.649011 
L 238.092628 310.157311 
L 237.179827 313.59224 
L 235.932166 316.920195 
L 234.361851 320.10862 
L 232.484244 323.126323 
L 230.317713 325.943784 
L 227.883452 328.53344 
L 225.205275 330.869957 
L 222.309382 332.930478 
L 219.224102 334.694845 
L 215.979618 336.145798 
L 212.607669 337.269144 
L 209.141243 338.053892 
L 205.614249 338.492365 
L 202.061192 338.580275 
L 198.51683 338.316761 
L 195.015836 337.704401 
L 191.592459 336.749185 
L 188.28019 335.460459 
L 185.111431 333.85083 
L 182.117181 331.936043 
L 179.326731 329.73483 
L 176.767381 327.268726 
L 174.464167 324.561856 
L 172.43962 321.6407 
L 170.713547 318.533834 
L 169.302833 315.271652 
L 168.221279 311.886068 
L 167.479464 308.4102 
L 167.084647 304.878053 
L 167.040688 301.324181 
L 167.34802 297.783349 
L 168.003634 294.290196 
L 169.001117 290.878896 
L 170.330711 287.582819 
L 171.979409 284.43421 
L 173.931083 281.463872 
L 176.16664 278.700861 
L 178.66421 276.172207 
L 181.399359 273.902648 
L 184.345332 271.914386 
L 187.473309 270.226871 
L 190.752689 268.856612 
L 194.151391 267.817014 
L 197.636168 267.118246 
L 201.172928 266.767145 
L 202.95 266.723177 
L 202.95 266.723177 
" clip-path="url(#p1780eedcd5)" style="fill: none; stroke: #0000ff; stroke-width: 1.5; stroke-linecap: square"/>
   </g>
   <g id="line2d_29">
    <path d="M 275.547736 236.65221 
L 279.097532 236.827976 
L 282.612601 237.353553 
L 286.058557 238.223801 
L 289.401688 239.430206 
L 292.609291 240.960966 
L 295.649987 242.801106 
L 298.494028 244.932624 
L 301.113593 247.33467 
L 303.483056 249.983743 
L 305.579236 252.85393 
L 307.381627 255.917152 
L 308.872598 259.143442 
L 310.037562 262.501239 
L 310.865123 265.957695 
L 311.347185 269.478996 
L 311.479033 273.030694 
L 311.259377 276.578044 
L 310.690364 280.086344 
L 309.777563 283.521273 
L 308.529902 286.849228 
L 306.959587 290.037653 
L 305.08198 293.055357 
L 302.915449 295.872817 
L 300.481188 298.462473 
L 297.803011 300.79899 
L 294.907118 302.859511 
L 291.821838 304.623878 
L 288.577354 306.074832 
L 285.205405 307.198177 
L 281.738979 307.982925 
L 278.211985 308.421398 
L 274.658928 308.509308 
L 271.114566 308.245794 
L 267.613572 307.633434 
L 264.190195 306.678219 
L 260.877926 305.389493 
L 257.709167 303.779863 
L 254.714917 301.865076 
L 251.924467 299.663864 
L 249.365117 297.19776 
L 247.061903 294.490889 
L 245.037356 291.569733 
L 243.311283 288.462867 
L 241.900569 285.200685 
L 240.819015 281.815101 
L 240.0772 278.339233 
L 239.682383 274.807086 
L 239.638424 271.253214 
L 239.945755 267.712382 
L 240.601369 264.21923 
L 241.598853 260.807929 
L 242.928447 257.511852 
L 244.577145 254.363244 
L 246.528819 251.392905 
L 248.764376 248.629894 
L 251.261945 246.10124 
L 253.997095 243.831681 
L 256.943068 241.843419 
L 260.071045 240.155905 
L 263.350425 238.785646 
L 266.749127 237.746047 
L 270.233904 237.047279 
L 273.770664 236.696178 
L 275.547736 236.65221 
L 275.547736 236.65221 
" clip-path="url(#p1780eedcd5)" style="fill: none; stroke: #ff0000; stroke-width: 1.5; stroke-linecap: square"/>
   </g>
   <g id="patch_3">
    <path d="M 50.49 352.44 
L 50.49 47.52 
" style="fill: none; stroke: #000000; stroke-width: 0.8; stroke-linejoin: miter; stroke-linecap: square"/>
   </g>
   <g id="patch_4">
    <path d="M 355.41 352.44 
L 355.41 47.52 
" style="fill: none; stroke: #000000; stroke-width: 0.8; stroke-linejoin: miter; stroke-linecap: square"/>
   </g>
   <g id="patch_5">
    <path d="M 50.49 352.44 
L 355.41 352.44 
" style="fill: none; stroke: #000000; stroke-width: 0.8; stroke-linejoin: miter; stroke-linecap: square"/>
   </g>
   <g id="patch_6">
    <path d="M 50.49 47.52 
L 355.41 47.52 
" style="fill: none; stroke: #000000; stroke-width: 0.8; stroke-linejoin: miter; stroke-linecap: square"/>
   </g>
   <g id="text_13">
    <!--    0 -->
    <g transform="translate(305.618703 199.98852)scale(0.1 -0.1)">
     <use xlink:href="#DejaVuSans-20"/>
     <use xlink:href="#DejaVuSans-20" x="31.787109"/>
     <use xlink:href="#DejaVuSans-20" x="63.574219"/>
     <use xlink:href="#DejaVuSans-30" x="95.361328"/>
    </g>
   </g>
   <g id="text_14">
    <!--    1 -->
    <g transform="translate(275.547736 127.390784)scale(0.1 -0.1)">
     <use xlink:href="#DejaVuSans-20"/>
     <use xlink:href="#DejaVuSans-20" x="31.787109"/>
     <use xlink:href="#DejaVuSans-20" x="63.574219"/>
     <use xlink:href="#DejaVuSans-31" x="95.361328"/>
    </g>
   </g>
   <g id="text_15">
    <!--    2 -->
    <g transform="translate(202.95 97.319817)scale(0.1 -0.1)">
     <defs>
      <path id="DejaVuSans-32" d="M 1228 531 
L 3431 531 
L 3431 0 
L 469 0 
L 469 531 
Q 828 903 1448 1529 
Q 2069 2156 2228 2338 
Q 2531 2678 2651 2914 
Q 2772 3150 2772 3378 
Q 2772 3750 2511 3984 
Q 2250 4219 1831 4219 
Q 1534 4219 1204 4116 
Q 875 4013 500 3803 
L 500 4441 
Q 881 4594 1212 4672 
Q 1544 4750 1819 4750 
Q 2544 4750 2975 4387 
Q 3406 4025 3406 3419 
Q 3406 3131 3298 2873 
Q 3191 2616 2906 2266 
Q 2828 2175 2409 1742 
Q 1991 1309 1228 531 
z
" transform="scale(0.015625)"/>
     </defs>
     <use xlink:href="#DejaVuSans-20"/>
     <use xlink:href="#DejaVuSans-20" x="31.787109"/>
     <use xlink:href="#DejaVuSans-20" x="63.574219"/>
     <use xlink:href="#DejaVuSans-32" x="95.361328"/>
    </g>
   </g>
   <g id="text_16">
    <!--    3 -->
    <g transform="translate(130.352264 127.390784)scale(0.1 -0.1)">
     <defs>
      <path id="DejaVuSans-33" d="M 2597 2516 
Q 3050 2419 3304 2112 
Q 3559 1806 3559 1356 
Q 3559 666 3084 287 
Q 2609 -91 1734 -91 
Q 1441 -91 1130 -33 
Q 819 25 488 141 
L 488 750 
Q 750 597 1062 519 
Q 1375 441 1716 441 
Q 2309 441 2620 675 
Q 2931 909 2931 1356 
Q 2931 1769 2642 2001 
Q 2353 2234 1838 2234 
L 1294 2234 
L 1294 2753 
L 1863 2753 
Q 2328 2753 2575 2939 
Q 2822 3125 2822 3475 
Q 2822 3834 2567 4026 
Q 2313 4219 1838 4219 
Q 1578 4219 1281 4162 
Q 984 4106 628 3988 
L 628 4550 
Q 988 4650 1302 4700 
Q 1616 4750 1894 4750 
Q 2613 4750 3031 4423 
Q 3450 4097 3450 3541 
Q 3450 3153 3228 2886 
Q 3006 2619 2597 2516 
z
" transform="scale(0.015625)"/>
     </defs>
     <use xlink:href="#DejaVuSans-20"/>
     <use xlink:href="#DejaVuSans-20" x="31.787109"/>
     <use xlink:href="#DejaVuSans-20" x="63.574219"/>
     <use xlink:href="#DejaVuSans-33" x="95.361328"/>
    </g>
   </g>
   <g id="text_17">
    <!--    4 -->
    <g transform="translate(100.281297 199.98852)scale(0.1 -0.1)">
     <defs>
      <path id="DejaVuSans-34" d="M 2419 4116 
L 825 1625 
L 2419 1625 
L 2419 4116 
z
M 2253 4666 
L 3047 4666 
L 3047 1625 
L 3713 1625 
L 3713 1100 
L 3047 1100 
L 3047 0 
L 2419 0 
L 2419 1100 
L 313 1100 
L 313 1709 
L 2253 4666 
z
" transform="scale(0.015625)"/>
     </defs>
     <use xlink:href="#DejaVuSans-20"/>
     <use xlink:href="#DejaVuSans-20" x="31.787109"/>
     <use xlink:href="#DejaVuSans-20" x="63.574219"/>
     <use xlink:href="#DejaVuSans-34" x="95.361328"/>
    </g>
   </g>
   <g id="text_18">
    <!--    5 -->
    <g transform="translate(130.352264 272.586256)scale(0.1 -0.1)">
     <use xlink:href="#DejaVuSans-20"/>
     <use xlink:href="#DejaVuSans-20" x="31.787109"/>
     <use xlink:href="#DejaVuSans-20" x="63.574219"/>
     <use xlink:href="#DejaVuSans-35" x="95.361328"/>
    </g>
   </g>
   <g id="text_19">
    <!--    6 -->
    <g transform="translate(202.95 302.657223)scale(0.1 -0.1)">
     <defs>
      <path id="DejaVuSans-36" d="M 2113 2584 
Q 1688 2584 1439 2293 
Q 1191 2003 1191 1497 
Q 1191 994 1439 701 
Q 1688 409 2113 409 
Q 2538 409 2786 701 
Q 3034 994 3034 1497 
Q 3034 2003 2786 2293 
Q 2538 2584 2113 2584 
z
M 3366 4563 
L 3366 3988 
Q 3128 4100 2886 4159 
Q 2644 4219 2406 4219 
Q 1781 4219 1451 3797 
Q 1122 3375 1075 2522 
Q 1259 2794 1537 2939 
Q 1816 3084 2150 3084 
Q 2853 3084 3261 2657 
Q 3669 2231 3669 1497 
Q 3669 778 3244 343 
Q 2819 -91 2113 -91 
Q 1303 -91 875 529 
Q 447 1150 447 2328 
Q 447 3434 972 4092 
Q 1497 4750 2381 4750 
Q 2619 4750 2861 4703 
Q 3103 4656 3366 4563 
z
" transform="scale(0.015625)"/>
     </defs>
     <use xlink:href="#DejaVuSans-20"/>
     <use xlink:href="#DejaVuSans-20" x="31.787109"/>
     <use xlink:href="#DejaVuSans-20" x="63.574219"/>
     <use xlink:href="#DejaVuSans-36" x="95.361328"/>
    </g>
   </g>
   <g id="text_20">
    <!--    7 -->
    <g transform="translate(275.547736 272.586256)scale(0.1 -0.1)">
     <defs>
      <path id="DejaVuSans-37" d="M 525 4666 
L 3525 4666 
L 3525 4397 
L 1831 0 
L 1172 0 
L 2766 4134 
L 525 4134 
L 525 4666 
z
" transform="scale(0.015625)"/>
     </defs>
     <use xlink:href="#DejaVuSans-20"/>
     <use xlink:href="#DejaVuSans-20" x="31.787109"/>
     <use xlink:href="#DejaVuSans-20" x="63.574219"/>
     <use xlink:href="#DejaVuSans-37" x="95.361328"/>
    </g>
   </g>
   <g id="text_21">
    <!-- Rotor Geometry -->
    <g transform="translate(155.064375 41.52)scale(0.12 -0.12)">
     <defs>
      <path id="DejaVuSans-52" d="M 2841 2188 
Q 3044 2119 3236 1894 
Q 3428 1669 3622 1275 
L 4263 0 
L 3584 0 
L 2988 1197 
Q 2756 1666 2539 1819 
Q 2322 1972 1947 1972 
L 1259 1972 
L 1259 0 
L 628 0 
L 628 4666 
L 2053 4666 
Q 2853 4666 3247 4331 
Q 3641 3997 3641 3322 
Q 3641 2881 3436 2590 
Q 3231 2300 2841 2188 
z
M 1259 4147 
L 1259 2491 
L 2053 2491 
Q 2509 2491 2742 2702 
Q 2975 2913 2975 3322 
Q 2975 3731 2742 3939 
Q 2509 4147 2053 4147 
L 1259 4147 
z
" transform="scale(0.015625)"/>
      <path id="DejaVuSans-6f" d="M 1959 3097 
Q 1497 3097 1228 2736 
Q 959 2375 959 1747 
Q 959 1119 1226 758 
Q 1494 397 1959 397 
Q 2419 397 2687 759 
Q 2956 1122 2956 1747 
Q 2956 2369 2687 2733 
Q 2419 3097 1959 3097 
z
M 1959 3584 
Q 2709 3584 3137 3096 
Q 3566 2609 3566 1747 
Q 3566 888 3137 398 
Q 2709 -91 1959 -91 
Q 1206 -91 779 398 
Q 353 888 353 1747 
Q 353 2609 779 3096 
Q 1206 3584 1959 3584 
z
" transform="scale(0.015625)"/>
      <path id="DejaVuSans-74" d="M 1172 4494 
L 1172 3500 
L 2356 3500 
L 2356 3053 
L 1172 3053 
L 1172 1153 
Q 1172 725 1289 603 
Q 1406 481 1766 481 
L 2356 481 
L 2356 0 
L 1766 0 
Q 1100 0 847 248 
Q 594 497 594 1153 
L 594 3053 
L 172 3053 
L 172 3500 
L 594 3500 
L 594 4494 
L 1172 4494 
z
" transform="scale(0.015625)"/>
      <path id="DejaVuSans-72" d="M 2631 2963 
Q 2534 3019 2420 3045 
Q 2306 3072 2169 3072 
Q 1681 3072 1420 2755 
Q 1159 2438 1159 1844 
L 1159 0 
L 581 0 
L 581 3500 
L 1159 3500 
L 1159 2956 
Q 1341 3275 1631 3429 
Q 1922 3584 2338 3584 
Q 2397 3584 2469 3576 
Q 2541 3569 2628 3553 
L 2631 2963 
z
" transform="scale(0.015625)"/>
      <path id="DejaVuSans-47" d="M 3809 666 
L 3809 1919 
L 2778 1919 
L 2778 2438 
L 4434 2438 
L 4434 434 
Q 4069 175 3628 42 
Q 3188 -91 2688 -91 
Q 1594 -91 976 548 
Q 359 1188 359 2328 
Q 359 3472 976 4111 
Q 1594 4750 2688 4750 
Q 3144 4750 3555 4637 
Q 3966 4525 4313 4306 
L 4313 3634 
Q 3963 3931 3569 4081 
Q 3175 4231 2741 4231 
Q 1884 4231 1454 3753 
Q 1025 3275 1025 2328 
Q 1025 1384 1454 906 
Q 1884 428 2741 428 
Q 3075 428 3337 486 
Q 3600 544 3809 666 
z
" transform="scale(0.015625)"/>
      <path id="DejaVuSans-65" d="M 3597 1894 
L 3597 1613 
L 953 1613 
Q 991 1019 1311 708 
Q 1631 397 2203 397 
Q 2534 397 2845 478 
Q 3156 559 3463 722 
L 3463 178 
Q 3153 47 2828 -22 
Q 2503 -91 2169 -91 
Q 1331 -91 842 396 
Q 353 884 353 1716 
Q 353 2575 817 3079 
Q 1281 3584 2069 3584 
Q 2775 3584 3186 3129 
Q 3597 2675 3597 1894 
z
M 3022 2063 
Q 3016 2534 2758 2815 
Q 2500 3097 2075 3097 
Q 1594 3097 1305 2825 
Q 1016 2553 972 2059 
L 3022 2063 
z
" transform="scale(0.015625)"/>
     </defs>
     <use xlink:href="#DejaVuSans-52"/>
     <use xlink:href="#DejaVuSans-6f" x="64.982422"/>
     <use xlink:href="#DejaVuSans-74" x="126.164062"/>
     <use xlink:href="#DejaVuSans-6f" x="165.373047"/>
     <use xlink:href="#DejaVuSans-72" x="226.554688"/>
     <use xlink:href="#DejaVuSans-20" x="267.667969"/>
     <use xlink:href="#DejaVuSans-47" x="299.455078"/>
     <use xlink:href="#DejaVuSans-65" x="376.945312"/>
     <use xlink:href="#DejaVuSans-6f" x="438.46875"/>
     <use xlink:href="#DejaVuSans-6d" x="499.650391"/>
     <use xlink:href="#DejaVuSans-65" x="597.0625"/>
     <use xlink:href="#DejaVuSans-74" x="658.585938"/>
     <use xlink:href="#DejaVuSans-72" x="697.794922"/>
     <use xlink:href="#DejaVuSans-79" x="738.908203"/>
    </g>
   </g>
  </g>
 </g>
 <defs>
  <clipPath id="p1780eedcd5">
   <rect x="50.49" y="47.52" width="304.92" height="304.92"/>
  </clipPath>
 </defs>
</svg>
